<?xml version="1.0" standalone="no"?>
<!DOCTYPE svg PUBLIC "-//W3C//DTD SVG 20010904//EN"
 "http://www.w3.org/TR/2001/REC-SVG-20010904/DTD/svg10.dtd">
<svg version="1.0" xmlns="http://www.w3.org/2000/svg"
 width="2412.000000pt" height="1208.000000pt" viewBox="0 0 2412.000000 1208.000000"
 preserveAspectRatio="xMidYMid meet">

<g transform="translate(0.000000,1208.000000) scale(0.100000,-0.100000)"
fill="#000000" stroke="none">
<path d="M2087 7268 l2 -1713 993 1 c1547 2 2365 6 2346 11 -37 9 -15 22 50
28 75 7 99 13 62 14 -79 4 -301 6 -285 3 39 -6 49 -12 38 -23 -16 -16 -224
-12 -277 6 -41 14 -72 15 -239 6 -235 -13 -374 -14 -381 -2 -11 17 -109 22
-398 20 -598 -4 -755 -1 -772 17 -16 16 -61 20 -51 4 4 -6 -7 -10 -27 -9 -31
0 -32 1 -10 11 12 6 22 15 22 20 0 11 127 10 134 -1 8 -12 124 -13 131 -1 4 7
13 6 27 -1 31 -17 293 4 318 26 10 8 57 14 135 17 86 3 128 9 150 21 l30 16
-31 1 c-16 0 -40 9 -52 20 -14 13 -35 20 -62 20 -23 0 -40 5 -40 11 0 8 -15
10 -46 6 -29 -3 -41 -1 -33 4 8 5 31 9 51 9 68 0 137 20 157 46 10 13 25 24
32 25 8 1 3 4 -11 8 -17 5 -29 2 -38 -8 -8 -9 -11 -10 -7 -3 4 7 0 12 -9 12
-25 0 -19 36 9 58 14 11 25 21 25 23 0 2 -25 5 -55 6 -64 1 -81 12 -87 54 -4
22 -1 29 9 25 8 -4 11 -1 7 5 -4 7 -24 8 -55 4 -59 -8 -119 2 -98 17 10 7 5 8
-14 3 -19 -4 -26 -2 -22 5 4 6 -13 10 -47 10 -66 1 -46 17 28 23 28 2 56 7 62
11 7 4 12 2 12 -4 0 -6 5 -8 10 -5 6 4 8 10 6 14 -8 12 28 9 36 -3 4 -6 15 -2
27 13 14 16 21 19 21 10 0 -9 7 -6 18 8 11 15 22 20 30 14 8 -4 13 -11 13 -15
-1 -3 1 -6 4 -6 3 0 12 0 20 0 8 0 15 4 15 10 0 5 -8 6 -17 3 -16 -6 -16 -5
-5 10 8 8 20 13 28 10 8 -3 14 -2 14 1 0 4 -15 12 -32 18 l-33 12 45 13 c29 9
46 10 48 3 2 -5 8 -10 13 -10 6 0 8 4 5 9 -3 5 21 19 54 31 34 13 59 25 57 27
-3 2 -38 -5 -78 -15 -127 -33 -131 -34 -123 -20 4 7 -2 5 -13 -5 -15 -13 -39
-18 -92 -19 -39 0 -74 2 -77 5 -3 3 4 15 15 26 18 18 19 22 5 35 -13 13 -10
16 21 22 19 3 35 10 35 16 0 5 4 7 9 3 16 -9 23 13 10 36 -6 12 -7 19 -1 15 5
-3 12 3 15 13 6 23 -15 35 -32 18 -8 -8 -14 -8 -22 0 -11 11 25 25 124 49 15
3 29 10 32 14 5 8 -33 0 -102 -21 -49 -15 -172 -23 -153 -10 8 6 11 11 5 11
-5 0 0 6 11 14 18 13 49 21 114 31 49 7 265 83 258 91 -2 2 -35 -8 -74 -21
-76 -26 -216 -54 -309 -61 -33 -3 -69 -7 -79 -9 -11 -2 -28 0 -38 6 -10 5 -18
6 -18 2 0 -5 -13 -9 -29 -9 -23 -1 -27 1 -18 11 9 9 14 10 19 1 5 -7 8 -5 8 7
0 10 8 18 20 19 11 0 26 1 33 2 6 1 18 9 26 20 12 15 12 19 0 27 -10 6 -5 9
16 10 17 0 24 3 18 6 -19 7 -16 23 5 24 13 0 11 3 -6 10 -13 5 -20 14 -16 20
4 7 0 10 -11 7 -10 -1 -20 -9 -23 -16 -2 -7 2 -10 12 -6 11 4 16 1 16 -11 0
-16 -2 -16 -22 -3 -24 15 -52 13 -42 -3 3 -5 -13 -9 -36 -9 -27 0 -43 -5 -46
-15 -4 -8 -13 -15 -21 -15 -13 0 -13 3 -3 15 7 8 9 15 4 16 -14 1 47 20 81 25
31 4 53 20 42 30 -11 11 -67 14 -67 4 0 -6 -4 -10 -10 -10 -5 0 -6 7 -3 17 4
11 3 14 -5 9 -7 -4 -12 -1 -12 9 0 9 4 13 10 10 20 -12 207 -6 290 10 119 23
309 107 385 170 11 9 4 7 -15 -5 -70 -43 -217 -109 -290 -130 -82 -23 -289
-37 -344 -22 -43 11 -102 -1 -129 -26 -27 -25 -47 -28 -47 -7 0 8 10 17 23 20
18 5 23 13 23 35 0 19 -4 26 -13 23 -7 -3 -13 0 -13 7 0 6 -5 8 -11 4 -8 -4
-9 0 -4 15 4 12 2 21 -4 21 -6 0 -11 -9 -11 -20 0 -11 -4 -20 -8 -20 -14 0
-32 23 -31 39 0 10 2 12 6 4 3 -9 11 -9 29 3 13 9 24 13 24 10 0 -4 11 4 24
16 13 13 22 26 20 30 -3 4 6 14 18 22 18 13 19 16 5 16 -9 0 -22 -9 -29 -19
-6 -10 -18 -17 -25 -14 -8 3 -13 -2 -13 -15 0 -18 -3 -19 -25 -9 -17 8 -20 13
-10 15 8 2 15 7 15 12 0 5 -7 7 -15 4 -8 -4 -15 -1 -15 5 0 6 6 11 14 11 7 0
16 9 19 20 3 11 1 20 -4 20 -5 0 -9 -7 -9 -15 0 -8 -4 -15 -9 -15 -5 0 -18 -3
-28 -7 -17 -6 -17 -5 -2 13 32 38 31 43 -1 34 -16 -5 -30 -6 -30 -3 0 3 -7 0
-15 -7 -10 -8 -15 -9 -15 -2 0 6 18 16 39 22 39 10 39 11 34 51 -5 31 -2 43
13 55 18 15 18 15 0 10 -13 -5 -17 -2 -12 9 3 9 0 15 -8 15 -8 0 -13 -7 -12
-16 0 -9 -4 -19 -10 -21 -7 -2 -9 8 -6 26 3 23 8 29 23 26 11 -2 17 0 14 6 -4
5 -13 9 -21 9 -14 0 -14 2 0 16 9 8 20 13 25 10 4 -3 7 8 5 24 -3 27 12 47 39
49 4 0 15 8 25 17 16 17 15 17 -16 11 -35 -7 -41 3 -16 24 14 11 14 13 0 21
-9 5 -21 6 -26 3 -6 -3 -10 -2 -10 4 0 5 8 15 18 20 17 10 15 12 -10 15 -20 2
-18 66 3 87 18 18 16 24 -5 20 -14 -3 -37 22 -32 35 3 7 0 15 -7 18 -7 2 -5 5
5 5 12 1 16 8 14 27 -4 32 -40 55 -76 47 -18 -3 -31 2 -44 16 -11 12 -25 21
-31 21 -13 0 -23 17 -21 35 0 5 8 8 15 7 12 -3 13 -1 2 12 -7 8 -18 14 -23 13
-6 -1 -13 4 -15 11 -3 8 1 10 14 5 16 -6 16 -5 4 10 -12 15 -12 17 3 11 9 -3
16 -1 16 5 0 6 6 11 14 11 19 0 40 26 26 35 -5 3 -10 2 -10 -3 0 -6 -8 -13
-17 -16 -10 -3 10 21 45 54 34 33 62 62 62 66 0 4 -7 1 -15 -6 -9 -7 -18 -10
-22 -6 -4 3 2 13 13 20 10 8 30 23 44 35 l25 21 -32 -11 c-17 -6 -39 -19 -48
-29 -9 -10 -23 -16 -30 -14 -8 3 -15 -7 -19 -28 -5 -23 -9 -29 -15 -20 -6 10
-39 -21 -117 -108 -123 -137 -173 -206 -216 -300 -16 -36 -35 -75 -40 -87 -15
-31 -70 -47 -152 -45 -73 3 -86 6 -86 24 0 6 6 6 15 -2 18 -15 117 -8 157 11
16 7 36 35 57 81 34 74 100 179 150 238 17 19 47 55 68 79 21 24 40 49 42 55
2 6 17 24 33 39 32 33 35 45 11 54 -19 7 -72 64 -73 77 0 5 8 15 17 22 10 7
15 15 11 19 -10 11 -78 -45 -78 -64 0 -10 -11 -28 -25 -41 -14 -13 -25 -18
-25 -12 0 7 4 12 9 12 5 0 11 7 15 15 9 24 -8 17 -49 -21 -22 -20 -41 -31 -43
-25 -4 13 0 17 99 101 102 86 189 147 222 155 15 4 27 11 27 16 0 5 7 9 15 9
8 0 24 9 35 20 11 11 25 20 31 20 7 0 19 8 28 18 34 37 297 152 406 177 33 7
85 20 115 28 103 29 165 37 360 48 191 11 198 10 315 -14 129 -27 190 -45 271
-83 28 -13 56 -24 62 -24 6 0 20 -10 32 -22 11 -12 22 -19 26 -16 3 3 15 -4
28 -16 60 -57 78 -68 88 -55 7 10 8 9 4 -6 -3 -14 5 -27 27 -45 24 -19 29 -21
24 -7 -8 23 14 22 34 0 9 -10 37 -38 63 -62 26 -24 54 -57 62 -72 15 -31 33
-36 52 -17 6 6 28 11 48 10 32 -1 35 0 23 15 -12 15 -12 16 5 10 15 -6 18 -3
14 18 -3 14 -2 25 2 25 4 0 11 7 14 16 5 12 2 15 -10 10 -13 -5 -15 -2 -11 14
3 11 0 23 -7 28 -14 8 -56 78 -56 93 0 6 9 7 22 3 21 -6 21 -6 -3 24 -13 16
-32 32 -41 35 -10 3 -22 18 -28 33 -17 45 -54 71 -109 79 -28 4 -51 11 -51 15
0 5 -13 11 -29 15 -39 8 -49 23 -52 72 -3 51 23 97 51 88 23 -7 35 10 35 50 0
25 4 30 28 33 19 2 27 -1 27 -12 0 -9 5 -16 11 -16 7 0 9 10 7 24 -4 21 -3 23
13 13 10 -6 22 -7 26 -3 4 5 2 11 -4 13 -17 6 -17 23 0 23 7 0 18 9 25 20 12
20 52 28 52 10 0 -5 -13 -16 -30 -25 -25 -13 -41 -35 -25 -35 14 0 55 25 55
34 0 6 11 16 25 23 14 6 25 7 25 2 0 -13 28 -11 32 3 9 27 165 1 201 -33 21
-20 22 -20 39 3 10 13 18 29 18 36 0 7 4 10 10 7 6 -3 7 1 4 9 -4 10 3 20 20
27 19 9 23 15 15 25 -6 8 -7 14 0 18 11 7 41 64 41 78 0 4 -209 8 -465 8
l-465 0 0 -29 c0 -30 -22 -57 -38 -47 -6 3 -12 -3 -15 -15 -3 -11 -11 -19 -19
-18 -7 1 -21 -1 -31 -6 -10 -4 -23 -2 -30 4 -8 6 -30 8 -50 6 -28 -4 -37 -1
-37 10 0 8 -4 15 -10 15 -5 0 -10 6 -10 13 0 19 -35 49 -45 40 -4 -5 -5 0 -2
10 6 16 -3 17 -110 17 -112 0 -193 -14 -193 -32 0 -6 6 -8 13 -5 6 2 20 0 29
-4 10 -6 19 -5 23 1 3 5 13 10 22 10 13 0 13 -3 3 -15 -10 -12 -10 -19 -2 -27
17 -17 15 -48 -3 -48 -9 0 -19 -8 -22 -17 -9 -24 -53 -61 -81 -68 -13 -3 -36
-17 -50 -30 -29 -27 -48 -32 -54 -13 -3 8 -18 12 -41 10 -32 -3 -37 0 -43 22
-3 13 -12 27 -20 30 -13 5 -12 10 1 36 18 35 50 70 64 70 10 0 18 38 13 63 -3
16 -59 17 -990 17 l-987 0 2 -1712z m2963 1528 c0 -21 -55 -47 -69 -33 -17 17
-13 27 9 27 11 0 20 5 20 10 0 6 9 10 20 10 11 0 20 -6 20 -14z m-45 -516 c3
-5 2 -10 -4 -10 -5 0 -13 5 -16 10 -3 6 -2 10 4 10 5 0 13 -4 16 -10z m-2075
-395 c0 -2 -10 -10 -22 -16 -21 -11 -22 -11 -9 4 13 16 31 23 31 12z m-110
-69 c0 -2 -7 -9 -15 -16 -13 -11 -14 -10 -9 4 5 14 24 23 24 12z m270 -66 c0
-5 -5 -10 -11 -10 -5 0 -7 5 -4 10 3 6 8 10 11 10 2 0 4 -4 4 -10z m-426 -125
c-9 -14 -19 -24 -21 -21 -6 6 20 46 30 46 4 0 0 -11 -9 -25z m510 -30 c-4 -8
-8 -15 -10 -15 -2 0 -4 7 -4 15 0 8 4 15 10 15 5 0 7 -7 4 -15z m50 9 c9 -3
14 -10 11 -15 -3 -4 -12 -6 -20 -2 -9 3 -15 -1 -15 -10 0 -9 -4 -19 -10 -22
-7 -4 -7 2 -1 18 6 14 7 28 4 31 -8 8 11 8 31 0z m56 -8 c0 -3 -4 -8 -10 -11
-5 -3 -10 -1 -10 4 0 6 5 11 10 11 6 0 10 -2 10 -4z m-660 -30 c0 -8 -9 -24
-20 -37 l-19 -24 17 38 c17 40 22 45 22 23z m544 -45 c14 -12 12 -19 -14 -70
-73 -139 -89 -261 -51 -387 29 -98 57 -133 180 -221 59 -43 63 -48 58 -79 -3
-17 -18 -50 -34 -72 -15 -22 -35 -50 -43 -62 -23 -33 -66 -61 -85 -54 -14 6
-13 10 8 33 40 42 107 159 101 175 -3 9 -25 26 -47 40 -23 13 -60 43 -81 65
-22 22 -44 37 -49 34 -6 -3 -7 -1 -3 5 9 14 -32 92 -49 92 -8 0 -11 8 -8 20 6
23 -6 26 -27 8 -11 -11 -11 -10 0 6 10 13 17 60 21 150 7 130 10 146 60 255
17 37 18 45 6 60 -29 34 -28 39 7 27 19 -6 41 -18 50 -25z m146 -35 c0 -3 -4
-8 -10 -11 -5 -3 -10 -1 -10 4 0 6 5 11 10 11 6 0 10 -2 10 -4z m-749 -29
c-10 -9 -11 -8 -5 6 3 10 9 15 12 12 3 -3 0 -11 -7 -18z m779 9 c0 -3 -4 -8
-10 -11 -5 -3 -10 -1 -10 4 0 6 5 11 10 11 6 0 10 -2 10 -4z m-810 -68 c0 -21
-18 -43 -27 -34 -4 5 -3 11 4 13 7 2 9 11 6 19 -3 8 0 14 6 14 6 0 11 -6 11
-12z m680 -38 c0 -5 -2 -10 -4 -10 -3 0 -8 5 -11 10 -3 6 -1 10 4 10 6 0 11
-4 11 -10z m-707 -35 c-7 -21 -13 -19 -13 6 0 11 4 18 10 14 5 -3 7 -12 3 -20z
m533 -12 c-10 -10 -19 5 -10 18 6 11 8 11 12 0 2 -7 1 -15 -2 -18z m300 -70
c-17 -36 -35 -28 -21 10 3 7 12 14 19 14 10 0 10 -6 2 -24z m-571 -50 c-18
-148 13 -305 82 -415 29 -47 29 -59 -3 -97 -29 -35 -141 -115 -171 -123 -54
-14 -36 13 45 68 115 79 119 89 76 166 -52 92 -76 201 -73 328 3 123 5 130 31
130 19 0 20 -4 13 -57z m520 17 c-10 -11 -22 -20 -26 -20 -5 0 -1 9 8 20 10
11 22 20 27 20 5 0 1 -9 -9 -20z m-263 -122 c-7 -7 -10 -5 -7 8 5 29 6 30 12
16 3 -8 1 -18 -5 -24z m-592 6 c0 -8 -4 -12 -10 -9 -5 3 -10 10 -10 16 0 5 5
9 10 9 6 0 10 -7 10 -16z m850 -4 c0 -5 -2 -10 -4 -10 -3 0 -8 5 -11 10 -3 6
-1 10 4 10 6 0 11 -4 11 -10z m36 -33 c2 -1 -15 -3 -36 -2 -38 0 -47 5 -34 17
5 6 62 -7 70 -15z m-8 -34 c16 -16 16 -16 -1 -10 -10 4 -23 7 -28 7 -6 0 -7 5
-4 10 9 14 14 13 33 -7z m-879 -103 c0 -23 -1 -23 -9 -5 -5 11 -9 31 -9 45 0
23 1 23 9 5 5 -11 9 -31 9 -45z m6 -40 c3 -5 1 -10 -4 -10 -6 0 -11 5 -11 10
0 6 2 10 4 10 3 0 8 -4 11 -10z m432 -56 c-3 -3 -12 -4 -19 -1 -8 3 -5 6 6 6
11 1 17 -2 13 -5z m-407 -73 c7 -24 6 -31 -3 -28 -7 2 -15 20 -18 41 -7 43 7
35 21 -13z m940 8 c0 -4 -7 -6 -15 -3 -8 4 -15 10 -15 15 0 4 7 6 15 3 8 -4
15 -10 15 -15z m-847 -205 c6 -7 21 -26 32 -40 50 -67 116 -131 190 -185 44
-32 85 -62 90 -66 28 -22 175 -87 189 -84 4 1 15 -4 23 -11 8 -7 27 -14 42
-15 14 -2 37 -8 51 -13 14 -5 71 -14 128 -21 102 -12 150 -28 69 -22 -23 1
-87 4 -142 6 -55 1 -109 8 -120 15 -14 8 -16 12 -5 12 20 1 -29 29 -52 30 -9
0 -29 6 -45 14 -15 8 -57 29 -93 47 -161 80 -369 273 -409 380 -7 19 -19 46
-27 61 -8 14 -14 32 -14 40 0 7 18 -20 40 -60 22 -41 46 -80 53 -88z m807 126
c0 -5 -5 -10 -11 -10 -5 0 -7 5 -4 10 3 6 8 10 11 10 2 0 4 -4 4 -10z m150
-20 c12 -8 11 -10 -7 -10 -13 0 -23 5 -23 10 0 13 11 13 30 0z m-350 -30 c0
-5 -4 -10 -10 -10 -5 0 -10 5 -10 10 0 6 5 10 10 10 6 0 10 -4 10 -10z m415
-20 c-3 -5 -16 -10 -28 -9 -21 0 -21 1 -2 9 28 12 37 12 30 0z m-571 -23 c46
-34 200 -102 296 -130 79 -24 158 -36 238 -37 31 0 32 -1 32 -42 0 -24 -11
-77 -24 -118 -23 -72 -25 -75 -60 -81 l-35 -6 19 27 c20 28 50 132 50 173 0
23 -5 26 -52 32 -189 26 -367 91 -467 170 -48 39 -46 48 3 12z m422 -32 c-9
-14 -22 -23 -27 -19 -7 4 -2 15 12 29 30 28 37 23 15 -10z m-292 9 c3 -8 2
-12 -4 -9 -6 3 -10 10 -10 16 0 14 7 11 14 -7z m386 -15 c0 -5 -4 -9 -8 -9 -5
0 -9 7 -9 15 0 8 4 12 9 9 4 -3 8 -9 8 -15z m-206 -14 c15 -14 25 -26 22 -26
-34 -8 -114 6 -103 17 2 3 17 0 32 -6 26 -10 27 -9 21 15 -8 31 -6 31 28 0z
m166 15 c0 -5 -4 -10 -10 -10 -5 0 -10 5 -10 10 0 6 5 10 10 10 6 0 10 -4 10
-10z m-100 -4 c0 -3 -4 -8 -10 -11 -5 -3 -10 -1 -10 4 0 6 5 11 10 11 6 0 10
-2 10 -4z m34 -92 c5 -13 -3 -12 -44 4 -8 3 -19 6 -24 6 -5 1 -11 6 -13 12 -5
16 75 -6 81 -22z m186 17 c0 -12 -44 -23 -63 -15 -8 3 -18 1 -22 -5 -8 -14
-62 -14 -71 0 -4 8 0 9 15 4 13 -4 21 -2 21 6 0 8 13 10 45 6 25 -4 47 -2 50
3 8 12 25 13 25 1z m96 -34 c4 -4 -2 -7 -14 -7 -11 0 -24 5 -27 10 -7 11 30 8
41 -3z m-34 -74 c-5 -25 -6 -25 -13 -8 -11 29 -10 35 5 35 9 0 12 -8 8 -27z
m123 -4 c11 -16 1 -19 -13 -3 -7 8 -8 14 -3 14 5 0 13 -5 16 -11z m-395 -14
c0 -16 16 -20 24 -6 9 14 46 20 43 7 -1 -6 6 -10 16 -8 19 3 21 -6 8 -27 -5
-7 -13 -11 -19 -7 -5 3 -15 0 -21 -8 -7 -8 -22 -17 -35 -20 -17 -4 -23 -13
-23 -31 0 -13 3 -22 8 -20 4 3 12 -2 17 -11 9 -16 12 -15 33 4 l23 22 -35 1
c-19 1 -27 3 -18 6 9 2 21 15 28 29 6 14 16 22 21 19 15 -9 12 -25 -5 -25 -22
0 -18 -15 6 -26 20 -9 21 -11 5 -27 -22 -21 -61 -31 -83 -22 -10 5 -36 10 -58
12 -23 1 -45 10 -53 20 -10 15 -14 15 -21 4 -5 -8 -11 -9 -15 -3 -7 11 15 22
44 22 10 0 21 6 24 13 3 6 3 1 0 -13 -4 -21 -1 -26 15 -26 16 0 20 5 15 21
-10 33 -10 37 6 42 13 4 13 3 0 -6 -8 -6 -10 -11 -4 -11 6 0 14 3 18 8 7 7 11
8 39 11 9 1 8 4 -2 10 -8 5 -21 7 -29 3 -10 -3 -13 -1 -8 9 3 8 9 22 12 32 8
21 24 23 24 2z m335 -15 c-3 -5 -12 -10 -18 -10 -7 0 -6 4 3 10 19 12 23 12
15 0z m-1033 -32 c42 -57 42 -64 -1 -23 -22 21 -41 43 -41 47 0 17 19 6 42
-24z m958 15 c0 -7 -7 -13 -15 -13 -8 0 -15 6 -15 13 0 8 7 14 15 14 8 0 15
-6 15 -14z m-611 -4 c17 -6 31 -15 31 -20 0 -12 0 -12 -45 11 -43 22 -36 26
14 9z m95 -35 c9 -8 16 -17 16 -20 0 -9 -20 -3 -34 12 -9 8 -20 12 -26 9 -5
-3 -10 -1 -10 4 0 17 37 13 54 -5z m624 -9 c-12 -14 -28 -25 -37 -25 -12 0
-12 -3 -3 -12 10 -10 14 -10 21 0 4 8 15 10 26 6 18 -7 18 -8 -1 -15 -10 -4
-31 -8 -46 -8 -25 -1 -26 1 -17 28 8 22 15 28 30 24 13 -4 19 0 19 11 0 9 7
16 15 16 11 0 10 -6 -7 -25z m-147 -2 c0 -15 2 -15 9 2 8 19 9 19 9 -2 1 -16
-5 -23 -18 -23 -14 0 -19 6 -18 20 2 25 17 27 18 3z m-437 -9 c3 -8 2 -12 -4
-9 -6 3 -10 10 -10 16 0 14 7 11 14 -7z m415 -27 c-2 -1 -13 -9 -24 -17 -19
-14 -19 -14 -6 3 7 9 18 17 24 17 6 0 8 -1 6 -3z m308 -23 c-3 -3 -12 -4 -19
-1 -8 3 -5 6 6 6 11 1 17 -2 13 -5z m-1051 -75 c3 -5 -4 -8 -15 -6 -21 3 -61
35 -61 48 0 9 67 -28 76 -42z m874 41 c0 -5 -9 -10 -21 -10 -11 0 -18 -4 -15
-8 2 -4 -7 -8 -22 -9 -25 -2 -25 -1 -6 7 12 5 25 13 29 19 8 14 35 14 35 1z
m100 0 c0 -5 -4 -10 -10 -10 -5 0 -10 5 -10 10 0 6 5 10 10 10 6 0 10 -4 10
-10z m-460 -25 c0 -10 -10 -15 -32 -15 l-33 1 30 14 c17 7 31 14 33 14 1 1 2
-6 2 -14z m257 9 c-3 -3 -12 -4 -19 -1 -8 3 -5 6 6 6 11 1 17 -2 13 -5z m-600
-120 c-7 -8 -157 65 -157 76 0 5 36 -9 81 -31 44 -22 79 -43 76 -45z m469 71
c14 -13 13 -15 -4 -15 -11 0 -25 7 -32 15 -10 12 -9 15 4 15 10 0 24 -7 32
-15z m48 -3 c3 -5 -1 -9 -9 -9 -8 0 -12 4 -9 9 3 4 7 8 9 8 2 0 6 -4 9 -8z
m71 -2 c3 -6 -4 -10 -17 -10 -18 0 -20 2 -8 10 19 12 18 12 25 0z m-449 -35
c-3 -9 0 -15 10 -15 8 0 12 5 9 10 -3 6 -2 10 4 10 5 0 9 -9 8 -20 -1 -21 -13
-25 -35 -12 -11 8 -7 42 5 42 3 0 3 -7 -1 -15z m94 -25 c0 -5 -2 -10 -4 -10
-3 0 -8 5 -11 10 -3 6 -1 10 4 10 6 0 11 -4 11 -10z m35 -28 c-3 -3 -11 0 -18
7 -9 10 -8 11 6 5 10 -3 15 -9 12 -12z m-325 -24 c0 -6 -6 -5 -15 2 -8 7 -15
14 -15 16 0 2 7 1 15 -2 8 -4 15 -11 15 -16z m220 6 c25 -15 25 -15 -10 -8
-40 7 -65 24 -34 24 10 -1 30 -7 44 -16z m-121 -73 c-6 -2 -21 6 -33 19 l-21
21 32 -18 c18 -10 28 -20 22 -22z m471 -87 c0 -2 -11 -4 -25 -4 -14 0 -25 4
-25 9 0 4 11 6 25 3 14 -2 25 -6 25 -8z m-23 -30 c-3 -3 -12 -4 -19 -1 -8 3
-5 6 6 6 11 1 17 -2 13 -5z m131 -11 c-10 -2 -28 -2 -40 0 -13 2 -5 4 17 4 22
1 32 -1 23 -4z m-924 -9 c9 -3 16 -12 16 -19 0 -22 -27 -25 -45 -5 -13 14 -13
19 -3 23 7 3 14 6 15 6 1 1 8 -2 17 -5z m184 -32 c6 -18 -83 -16 -98 3 -10 12
-8 16 11 24 27 10 80 -7 87 -27z m-358 -2 c0 -17 -7 -20 -42 -20 -24 0 -49 4
-57 9 -25 16 -1 31 50 31 42 0 49 -3 49 -20z m1195 -50 c-3 -5 -13 -10 -21
-10 -8 0 -14 5 -14 10 0 6 9 10 21 10 11 0 17 -4 14 -10z"/>
<path d="M5763 8940 c2 -45 9 -49 31 -19 14 20 15 20 50 4 19 -9 39 -14 44
-11 6 3 15 0 21 -8 10 -11 20 -12 59 -2 40 10 47 16 50 39 3 26 22 39 22 16 0
-13 49 -4 65 12 5 5 -19 9 -63 9 -41 0 -72 -4 -72 -10 0 -5 6 -10 12 -10 7 0
3 -10 -9 -21 l-22 -22 -31 32 c-29 28 -37 31 -96 31 l-64 0 3 -40z"/>
<path d="M7143 8964 c19 -10 32 -12 46 -5 14 8 23 5 40 -13 12 -12 18 -25 15
-29 -3 -3 -3 -11 1 -16 11 -19 35 15 35 48 l0 31 -82 0 c-79 -1 -82 -1 -55
-16z"/>
<path d="M5960 8880 c-8 -6 -10 -10 -5 -10 6 0 20 -3 33 -6 14 -4 22 -2 22 7
0 7 -3 9 -7 6 -3 -4 -11 -3 -17 3 -7 5 -17 5 -26 0z"/>
<path d="M5970 8650 c0 -5 7 -10 16 -10 8 0 12 5 9 10 -3 6 -10 10 -16 10 -5
0 -9 -4 -9 -10z"/>
<path d="M5940 8585 c-7 -9 -8 -15 -2 -15 5 0 12 7 16 15 3 8 4 15 2 15 -2 0
-9 -7 -16 -15z"/>
<path d="M4138 8243 c18 -2 45 -2 60 0 15 2 0 4 -33 4 -33 0 -45 -2 -27 -4z"/>
<path d="M4338 8233 c6 -2 18 -2 25 0 6 3 1 5 -13 5 -14 0 -19 -2 -12 -5z"/>
<path d="M3290 8154 c-41 -24 -87 -53 -102 -62 -42 -26 -37 -59 14 -104 45
-40 63 -46 70 -25 7 17 -2 37 -16 37 -14 0 -66 54 -66 69 0 4 41 35 90 67 78
50 98 65 88 64 -2 0 -37 -21 -78 -46z"/>
<path d="M5160 8107 c0 -5 11 -23 24 -40 28 -38 106 -197 106 -217 0 -7 3 -10
7 -7 8 9 -44 142 -73 187 -31 48 -64 87 -64 77z"/>
<path d="M5408 8072 c-4 -15 -1 -18 19 -14 19 3 21 7 12 18 -16 19 -26 18 -31
-4z"/>
<path d="M3107 8073 c-4 -3 -7 -11 -7 -17 0 -6 5 -5 12 2 6 6 9 14 7 17 -3 3
-9 2 -12 -2z"/>
<path d="M4796 8010 c18 -19 50 -62 73 -94 46 -67 55 -69 13 -3 -32 52 -70 96
-97 117 -11 8 -6 -1 11 -20z"/>
<path d="M3100 8000 c0 -17 15 -40 45 -69 25 -24 45 -38 45 -32 0 7 -12 23
-27 36 -16 13 -23 25 -16 25 13 0 11 26 -4 41 -7 7 -9 3 -6 -15 4 -21 2 -25
-11 -20 -10 4 -15 12 -12 19 2 6 0 18 -5 26 -6 10 -9 7 -9 -11z"/>
<path d="M4356 7941 c128 -65 253 -233 255 -341 1 -52 17 -104 18 -59 3 95
-51 225 -128 312 -33 36 -138 104 -176 112 -19 5 -7 -4 31 -24z"/>
<path d="M5644 7829 c-4 -7 -32 -9 -77 -6 -39 3 -78 1 -86 -3 -9 -5 -38 -12
-65 -15 l-48 -7 5 -41 6 -42 -13 34 c-11 31 -12 16 -13 -125 0 -214 -20 -297
-126 -524 -11 -25 -54 -97 -95 -160 -57 -88 -104 -145 -201 -241 -153 -152
-270 -240 -461 -347 -179 -100 -182 -102 -152 -95 12 3 25 9 28 14 9 15 34 10
34 -6 0 -8 -4 -15 -8 -15 -5 0 -17 -7 -28 -15 -16 -14 -14 -14 16 0 61 28 194
97 228 117 50 30 50 14 0 -21 -23 -17 -52 -37 -63 -46 -18 -15 -18 -15 10 -1
31 17 124 56 131 56 2 0 1 -6 -2 -14 -7 -17 -93 -75 -151 -102 -23 -10 -43
-22 -43 -27 0 -8 78 30 179 87 35 20 66 34 69 31 3 -2 -3 -7 -12 -11 -21 -8
-21 -24 2 -24 16 -1 16 -1 0 -14 -24 -18 -23 -29 1 -16 20 10 40 -3 22 -15 -6
-3 -8 -12 -4 -20 3 -8 0 -15 -7 -15 -6 0 -8 5 -5 10 10 16 -7 11 -50 -15 -38
-24 -34 -36 5 -15 41 22 9 -15 -37 -43 -25 -15 -43 -30 -40 -33 5 -5 107 53
117 67 3 3 31 20 64 38 55 29 85 33 70 9 -4 -7 -2 -8 4 -4 6 4 9 13 5 21 -3
10 2 15 16 15 12 0 28 6 37 13 37 31 109 107 109 115 0 13 34 44 52 46 9 2 19
9 21 16 3 7 0 10 -7 6 -7 -5 -9 -1 -5 8 10 25 -7 19 -43 -16 -56 -55 -44 -26
17 42 33 36 60 68 60 71 0 4 12 15 27 24 l26 18 -24 -34 c-13 -19 -31 -43 -41
-53 -21 -23 -21 -26 -8 -46 13 -21 53 17 46 45 -6 25 10 47 50 68 47 24 127
152 188 299 37 89 45 125 25 112 -8 -4 -9 4 -4 27 4 19 11 36 16 37 5 2 6 9 3
14 -4 6 -1 16 7 22 16 12 19 28 19 106 0 83 -1 90 -8 90 -9 0 -24 -36 -58
-140 -31 -94 -32 -96 -39 -88 -4 3 6 46 20 94 46 157 47 164 40 279 -4 61 -9
145 -11 187 -1 43 -5 82 -9 88 -3 5 -2 10 3 10 5 0 12 -23 15 -52 4 -28 10
-54 14 -57 7 -6 13 -48 16 -128 1 -18 5 -33 8 -33 13 0 21 -78 24 -220 l2
-145 94 -16 c104 -18 155 -37 181 -68 10 -12 29 -21 43 -21 29 0 33 -17 8 -36
-20 -14 -18 -18 15 -29 21 -6 23 -4 17 13 -5 19 -3 20 24 12 17 -5 35 -11 40
-15 12 -7 121 11 159 27 15 6 40 10 55 9 15 -2 34 3 42 9 8 7 21 10 30 7 8 -4
17 -2 20 3 9 15 25 12 25 -5 0 -8 -4 -15 -10 -15 -5 0 -10 -7 -10 -15 0 -8 7
-15 15 -15 9 0 15 9 15 24 0 19 6 25 28 28 21 2 27 8 25 26 -2 15 3 22 15 22
10 0 22 4 28 9 17 17 68 15 124 -4 31 -10 82 -18 115 -18 70 0 166 10 173 18
3 3 0 15 -5 28 -15 33 -88 47 -256 50 -81 1 -138 6 -140 12 -1 6 13 11 31 13
17 2 32 7 32 12 0 11 58 40 82 40 13 0 18 8 18 30 0 29 1 30 23 17 12 -7 40
-13 62 -12 31 0 47 8 73 33 34 33 77 47 52 17 -7 -8 -17 -15 -23 -15 -12 0
-36 -31 -37 -47 0 -8 12 -13 30 -13 25 0 30 4 30 25 0 14 4 25 9 25 5 0 12 9
16 19 8 28 60 24 60 -4 0 -13 -8 -21 -23 -23 -28 -4 -39 -27 -22 -47 9 -11 16
-12 26 -4 7 6 23 8 35 4 12 -4 32 -1 45 6 18 9 33 10 59 2 30 -10 35 -9 35 5
0 8 3 12 7 9 3 -4 12 -2 20 4 9 9 17 8 27 0 10 -9 15 -8 19 3 7 17 -23 46 -46
46 -13 0 -15 6 -10 30 5 26 3 30 -13 24 -11 -3 8 12 41 33 33 22 71 52 85 66
17 18 35 27 58 27 23 0 32 5 32 16 0 12 -6 15 -24 10 -14 -3 -28 -2 -31 4 -8
13 -48 13 -61 0 -14 -14 -74 -15 -142 -2 -51 9 -54 8 -63 -14 -4 -13 -16 -24
-24 -24 -9 0 -14 -4 -10 -9 3 -5 1 -12 -5 -16 -5 -3 -10 -1 -10 6 0 7 -8 9
-21 6 -32 -9 -78 16 -98 54 -14 26 -24 33 -41 31 -13 -2 -32 6 -46 19 -25 23
-32 49 -14 49 6 0 10 -9 10 -21 0 -19 1 -19 16 -4 9 9 15 17 13 18 -2 1 -14 8
-26 15 -32 17 -42 15 -80 -14 -19 -14 -40 -23 -48 -20 -8 3 -37 -18 -69 -50
-48 -46 -61 -54 -94 -54 -21 0 -43 5 -50 12 -14 14 -16 52 -2 43 5 -3 25 6 44
20 32 24 34 29 30 73 -3 36 -11 52 -31 69 -25 20 -110 41 -143 35 -77 -15
-125 -12 -270 22 -56 13 -66 13 -73 0 -11 -20 -29 -18 -26 4 3 23 -18 72 -31
72 -5 0 -20 11 -32 25 -23 26 -52 33 -64 14z m54 -126 c-2 -10 -14 -19 -26
-21 -21 -3 -22 -1 -12 17 13 26 43 28 38 4z m392 -63 c0 -5 -5 -10 -11 -10 -5
0 -7 5 -4 10 3 6 8 10 11 10 2 0 4 -4 4 -10z m-114 -80 l27 -11 -20 -19 c-12
-10 -23 -23 -24 -27 -2 -4 -19 -18 -37 -31 -27 -19 -40 -22 -77 -17 -24 4 -46
13 -49 21 -3 8 0 14 7 14 7 0 18 9 25 20 7 11 18 20 26 20 7 0 19 6 26 14 6 8
21 17 33 19 12 2 25 5 29 6 4 0 19 -4 34 -9z m456 -242 c16 1 31 -3 33 -10 8
-19 123 -16 136 3 8 11 9 10 7 -5 -4 -25 -55 -43 -79 -28 -15 9 -24 5 -53 -24
-25 -25 -42 -35 -56 -31 -11 3 -36 1 -56 -3 -24 -6 -43 -5 -55 3 -14 9 -21 9
-30 0 -8 -8 -19 -9 -36 -2 -15 5 -47 6 -81 0 -34 -6 -61 -6 -66 0 -17 16 -84
11 -94 -7 -5 -9 -22 -17 -38 -19 -16 -1 -41 -6 -57 -10 -15 -4 -72 -2 -127 5
-92 11 -102 15 -120 40 -11 16 -20 33 -20 39 0 19 44 39 102 45 49 5 60 3 76
-14 17 -18 30 -20 133 -19 63 1 121 1 129 0 15 -2 80 5 138 15 18 4 38 1 46
-5 11 -9 17 -9 27 1 16 16 90 36 104 29 5 -3 22 -4 37 -3z m478 -9 c0 -6 -4
-7 -10 -4 -5 3 -10 11 -10 16 0 6 5 7 10 4 6 -3 10 -11 10 -16z m-25 -9 c3 -5
-3 -10 -14 -10 -12 0 -21 5 -21 10 0 6 6 10 14 10 8 0 18 -4 21 -10z m-1590
-347 c-28 -60 -127 -215 -133 -208 -5 5 44 87 68 112 11 12 20 27 20 33 0 16
62 132 67 126 2 -2 -8 -30 -22 -63z m36 -101 c-11 -23 -26 -44 -31 -47 -6 -4
1 16 16 44 14 29 29 50 31 47 2 -2 -5 -22 -16 -44z m-126 -141 c-3 -6 -11 -11
-17 -11 -6 0 -6 6 2 15 14 17 26 13 15 -4z m-34 -48 c-12 -20 -14 -14 -5 12 4
9 9 14 11 11 3 -2 0 -13 -6 -23z m-74 -111 c-61 -74 -144 -148 -155 -138 -7 8
202 225 211 219 4 -2 -21 -39 -56 -81z m-127 -29 c-1 -15 -30 -46 -37 -40 -3
4 2 16 12 27 19 21 25 24 25 13z m-300 -137 c0 -3 -4 -8 -10 -11 -5 -3 -10 -1
-10 4 0 6 5 11 10 11 6 0 10 -2 10 -4z"/>
<path d="M4927 7809 c4 -13 8 -18 11 -10 2 7 -1 18 -6 23 -8 8 -9 4 -5 -13z"/>
<path d="M5300 7825 c0 -5 7 -32 15 -60 l15 -50 -6 45 c-6 40 -23 90 -24 65z"/>
<path d="M4957 7675 c3 -44 9 -84 14 -89 13 -14 11 27 -6 104 l-13 65 5 -80z"/>
<path d="M3190 7720 c0 -5 5 -10 10 -10 6 0 10 5 10 10 0 6 -4 10 -10 10 -5 0
-10 -4 -10 -10z"/>
<path d="M3300 7650 c-6 -11 -8 -20 -6 -20 3 0 10 9 16 20 6 11 8 20 6 20 -3
0 -10 -9 -16 -20z"/>
<path d="M6655 7590 c3 -5 8 -10 11 -10 2 0 4 5 4 10 0 6 -5 10 -11 10 -5 0
-7 -4 -4 -10z"/>
<path d="M4610 7485 c0 -14 -11 -58 -25 -97 -14 -39 -25 -82 -25 -94 0 -23 26
-45 52 -43 7 0 1 5 -14 11 -34 12 -34 22 -6 90 22 56 40 158 26 158 -4 0 -8
-11 -8 -25z"/>
<path d="M7195 7460 c3 -5 8 -10 11 -10 2 0 4 5 4 10 0 6 -5 10 -11 10 -5 0
-7 -4 -4 -10z"/>
<path d="M4944 7395 c-3 -8 -4 -20 -2 -27 3 -7 7 -1 10 15 6 29 1 36 -8 12z"/>
<path d="M4925 7328 c-4 -13 -27 -65 -51 -117 -24 -52 -42 -96 -39 -99 4 -4
36 62 90 186 10 23 16 45 12 48 -3 3 -8 -5 -12 -18z"/>
<path d="M4645 7240 c27 -12 43 -12 25 0 -8 5 -22 9 -30 9 -10 0 -8 -3 5 -9z"/>
<path d="M3373 7225 c-9 -24 1 -27 20 -5 14 17 15 20 2 20 -9 0 -18 -7 -22
-15z"/>
<path d="M15709 7230 c-107 -19 -206 -98 -256 -205 -26 -56 -28 -68 -28 -195
0 -127 2 -139 28 -195 34 -73 76 -118 142 -153 45 -24 61 -27 160 -27 100 0
115 2 166 28 69 33 132 99 167 175 25 53 27 66 27 197 0 132 -2 143 -28 196
-35 73 -98 134 -162 158 -61 23 -154 32 -216 21z m146 -139 c80 -36 125 -124
125 -246 0 -92 -24 -159 -74 -209 -71 -71 -179 -81 -257 -24 -73 54 -109 214
-75 332 19 63 72 131 121 152 43 19 113 17 160 -5z"/>
<path d="M4708 7223 c7 -3 16 -2 19 1 4 3 -2 6 -13 5 -11 0 -14 -3 -6 -6z"/>
<path d="M8647 7219 c-117 -27 -195 -103 -238 -231 -18 -54 -20 -81 -17 -183
3 -104 7 -127 29 -175 34 -70 80 -116 149 -149 50 -24 66 -26 170 -25 71 1
132 7 160 16 l45 14 -3 64 c-1 35 -3 65 -5 66 -2 2 -27 -5 -55 -16 -57 -22
-154 -26 -212 -10 -42 11 -101 70 -121 120 -18 45 -18 202 0 253 16 47 63 102
105 125 37 19 159 21 225 3 23 -7 45 -10 48 -7 3 2 8 32 12 65 l7 60 -61 10
c-72 13 -184 13 -238 0z"/>
<path d="M13587 7219 c-98 -23 -173 -86 -221 -188 -30 -64 -31 -71 -31 -201 0
-109 4 -145 19 -185 26 -66 94 -137 159 -165 73 -32 207 -38 302 -13 l70 18
-3 64 c-1 35 -3 66 -5 67 -2 2 -27 -5 -55 -16 -57 -22 -154 -26 -214 -10 -87
25 -145 143 -135 276 15 206 145 281 374 218 23 -6 21 -11 38 98 4 25 2 27
-59 37 -73 13 -185 13 -239 0z"/>
<path d="M14900 6845 l0 -385 65 0 64 0 3 138 3 137 75 5 c161 12 260 111 260
261 0 47 -6 72 -25 108 -50 91 -127 121 -317 121 l-128 0 0 -385z m270 247
c42 -21 60 -53 60 -108 0 -67 -54 -119 -130 -124 -74 -6 -70 -12 -70 118 0 65
3 122 7 125 13 14 99 7 133 -11z"/>
<path d="M16220 6845 l0 -385 70 0 69 0 3 143 3 142 108 -142 109 -143 89 0
89 0 -77 98 c-42 53 -103 129 -135 169 l-58 71 51 17 c124 42 184 181 130 301
-40 88 -112 114 -313 114 l-138 0 0 -385z m280 247 c65 -32 65 -126 1 -169
-25 -17 -48 -23 -87 -23 l-54 0 0 105 0 105 53 0 c30 0 67 -8 87 -18z"/>
<path d="M18353 7215 c-142 -44 -239 -158 -263 -310 -30 -190 39 -344 188
-417 65 -32 70 -33 192 -33 92 0 141 5 188 19 l62 19 0 188 0 189 -65 0 -65 0
0 -139 c0 -154 4 -145 -73 -156 -101 -15 -207 32 -254 113 -33 55 -43 175 -22
250 17 61 96 142 155 160 62 18 154 15 229 -9 37 -11 68 -19 70 -17 5 6 23
123 19 127 -1 2 -29 10 -61 17 -73 17 -245 17 -300 -1z"/>
<path d="M20267 7216 c-92 -34 -147 -110 -147 -205 0 -101 39 -147 175 -209
123 -56 149 -78 149 -126 0 -31 -7 -44 -31 -67 -43 -38 -103 -46 -194 -25 -40
9 -74 14 -76 12 -3 -2 -7 -32 -10 -65 -6 -59 -5 -60 23 -68 16 -4 79 -8 139
-8 104 0 113 2 165 31 97 54 146 158 119 256 -19 74 -44 97 -158 151 -121 56
-161 88 -161 128 0 39 38 78 85 89 37 9 139 -1 178 -16 11 -4 15 9 20 58 3 34
3 65 0 68 -12 12 -239 9 -276 -4z"/>
<path d="M3420 7210 c0 -5 5 -10 11 -10 5 0 7 5 4 10 -3 6 -8 10 -11 10 -2 0
-4 -4 -4 -10z"/>
<path d="M9060 6840 l0 -380 65 0 65 0 0 380 0 380 -65 0 -65 0 0 -380z"/>
<path d="M9340 6840 l0 -380 65 0 65 0 2 261 3 262 160 -261 160 -261 83 -1
82 0 0 380 0 380 -71 0 -72 0 5 -255 c3 -140 3 -253 -1 -251 -3 2 -76 117
-161 255 l-155 251 -82 0 -83 0 0 -380z"/>
<path d="M10100 6840 l0 -380 210 0 210 0 0 60 0 60 -140 0 -141 0 3 108 3
107 128 3 127 3 0 54 0 55 -130 0 -131 0 3 98 3 97 138 3 137 3 0 54 0 55
-210 0 -210 0 0 -380z"/>
<path d="M10710 7210 c0 -13 -99 -690 -106 -722 l-6 -28 71 0 70 0 6 33 c3 17
17 126 30 241 14 116 27 211 29 213 4 4 81 -213 137 -385 l34 -103 69 3 69 3
81 242 c45 133 83 244 86 247 3 3 21 -99 39 -227 18 -128 35 -240 38 -249 4
-15 16 -18 74 -18 38 0 69 2 69 5 0 3 -25 169 -55 370 -30 200 -55 369 -55
375 0 7 -27 10 -81 8 l-82 -3 -87 -258 c-48 -141 -89 -259 -91 -262 -3 -2 -44
115 -93 261 l-88 264 -79 0 c-43 0 -79 -4 -79 -10z"/>
<path d="M11790 7217 c0 -2 -61 -169 -135 -372 -74 -203 -135 -372 -135 -377
0 -4 31 -8 69 -8 l69 0 30 83 30 82 140 3 140 3 16 -43 c9 -24 22 -61 30 -83
l13 -40 78 -3 c60 -2 76 0 73 10 -2 7 -65 178 -139 380 l-134 368 -72 0 c-40
0 -73 -1 -73 -3z m120 -335 l46 -127 -94 -3 c-52 -1 -96 -1 -98 0 -5 5 88 258
95 258 3 0 26 -58 51 -128z"/>
<path d="M12200 7165 l0 -54 103 -3 102 -3 3 -322 2 -323 65 0 65 0 2 323 3
322 103 3 102 3 0 54 0 55 -275 0 -275 0 0 -55z"/>
<path d="M12830 6840 l0 -380 205 0 205 0 0 60 0 59 -137 3 -138 3 0 105 0
105 128 3 127 3 0 54 0 54 -127 3 -128 3 0 95 0 95 138 3 137 3 0 54 0 55
-205 0 -205 0 0 -380z"/>
<path d="M14050 6853 c-73 -203 -135 -374 -138 -381 -3 -10 12 -12 68 -10 l72
3 30 83 30 83 140 -3 141 -3 30 -82 30 -83 73 0 c41 0 74 3 74 8 0 4 -61 175
-136 380 l-137 372 -72 0 -72 0 -133 -367z m252 30 l46 -128 -49 -3 c-27 -2
-71 -2 -97 0 l-48 3 45 127 c25 70 48 128 52 128 3 0 26 -57 51 -127z"/>
<path d="M16750 7165 l0 -54 103 -3 102 -3 3 -322 2 -323 65 0 65 0 2 323 3
322 108 3 107 3 0 54 0 55 -280 0 -280 0 0 -55z"/>
<path d="M17380 6942 c0 -208 3 -290 14 -325 33 -110 107 -158 252 -165 158
-7 252 38 306 146 22 45 23 58 26 335 l3 287 -64 0 -65 0 -4 -267 c-3 -244 -5
-272 -23 -308 -28 -57 -72 -77 -157 -73 -73 4 -112 24 -135 69 -9 17 -13 101
-13 302 l0 277 -70 0 -70 0 0 -278z"/>
<path d="M18862 6928 c3 -271 5 -296 24 -338 47 -101 143 -146 298 -138 144 8
222 58 261 167 12 35 15 98 15 322 l0 279 -64 0 -65 0 -3 -277 c-3 -310 -6
-326 -72 -357 -42 -20 -135 -21 -182 -1 -25 10 -40 26 -54 57 -18 39 -20 67
-20 311 l0 267 -71 0 -71 0 4 -292z"/>
<path d="M19610 6840 l0 -380 205 0 205 0 0 60 0 60 -135 0 -136 0 3 108 3
107 128 3 127 3 0 54 0 55 -130 0 -131 0 3 98 3 97 133 3 132 3 0 54 0 55
-205 0 -205 0 0 -380z"/>
<path d="M20750 6853 c-73 -203 -135 -374 -138 -381 -3 -10 12 -12 68 -10 l72
3 30 83 30 83 140 -3 141 -3 30 -82 30 -83 73 0 c41 0 74 3 74 8 0 4 -61 175
-136 380 l-137 372 -72 0 -72 0 -133 -367z m252 30 l46 -128 -49 -3 c-27 -2
-71 -2 -97 0 l-48 3 45 127 c25 70 48 128 52 128 3 0 26 -57 51 -127z"/>
<path d="M3360 7171 c-16 -30 -12 -36 10 -16 21 19 26 35 10 35 -5 0 -14 -9
-20 -19z"/>
<path d="M3475 7160 c4 -6 11 -8 16 -5 14 9 11 15 -7 15 -8 0 -12 -5 -9 -10z"/>
<path d="M5191 7092 c-18 -37 -28 -62 -23 -57 14 14 65 116 60 120 -2 3 -19
-26 -37 -63z"/>
<path d="M3395 7099 c-4 -6 -4 -13 -1 -16 8 -8 36 5 36 17 0 13 -27 13 -35 -1z"/>
<path d="M3460 7099 c0 -5 5 -7 10 -4 6 3 10 8 10 11 0 2 -4 4 -10 4 -5 0 -10
-5 -10 -11z"/>
<path d="M4756 7025 c-20 -24 -42 -51 -49 -58 -7 -7 -28 -31 -47 -53 l-35 -39
43 40 c41 37 138 155 129 155 -3 0 -21 -20 -41 -45z"/>
<path d="M3340 7040 c0 -5 5 -10 11 -10 5 0 7 5 4 10 -3 6 -8 10 -11 10 -2 0
-4 -4 -4 -10z"/>
<path d="M3365 7020 c-3 -5 1 -10 9 -10 9 0 16 5 16 10 0 6 -4 10 -9 10 -6 0
-13 -4 -16 -10z"/>
<path d="M3398 6955 c-6 -28 6 -34 16 -9 8 22 7 34 -3 34 -5 0 -11 -11 -13
-25z"/>
<path d="M6450 6941 c0 -17 5 -31 10 -31 6 0 10 11 10 24 0 14 -4 28 -10 31
-6 4 -10 -7 -10 -24z"/>
<path d="M3510 6947 c0 -9 -8 -21 -17 -26 -12 -7 -13 -11 -5 -11 23 0 46 30
33 43 -8 8 -11 7 -11 -6z"/>
<path d="M6260 6946 c0 -9 7 -16 16 -16 9 0 14 5 12 12 -6 18 -28 21 -28 4z"/>
<path d="M6416 6951 c-4 -7 -5 -15 -2 -18 9 -9 19 4 14 18 -4 11 -6 11 -12 0z"/>
<path d="M6360 6934 c0 -9 5 -14 12 -12 18 6 21 28 4 28 -9 0 -16 -7 -16 -16z"/>
<path d="M3568 6903 c7 -3 16 -2 19 1 4 3 -2 6 -13 5 -11 0 -14 -3 -6 -6z"/>
<path d="M3530 6850 c-9 -6 -10 -10 -3 -10 6 0 15 5 18 10 8 12 4 12 -15 0z"/>
<path d="M3400 6844 c0 -3 6 -12 14 -19 17 -17 30 -7 15 12 -12 13 -29 18 -29
7z"/>
<path d="M5004 6818 c-16 -18 -43 -48 -59 -67 l-30 -35 32 25 c18 13 32 29 32
36 1 6 11 20 24 30 22 17 42 43 35 43 -2 0 -17 -15 -34 -32z"/>
<path d="M4610 6822 c0 -28 128 -142 159 -141 l26 0 -24 10 c-13 5 -54 40 -92
79 -45 45 -69 63 -69 52z"/>
<path d="M3520 6826 c0 -2 7 -9 15 -16 9 -7 15 -8 15 -2 0 5 -7 12 -15 16 -8
3 -15 4 -15 2z"/>
<path d="M3525 6780 c-3 -6 1 -7 9 -4 18 7 21 14 7 14 -6 0 -13 -4 -16 -10z"/>
<path d="M4867 6674 c-21 -20 -37 -38 -35 -40 3 -2 22 14 43 36 48 50 43 52
-8 4z"/>
<path d="M4130 6620 c-9 -6 -10 -10 -3 -10 6 0 15 5 18 10 8 12 4 12 -15 0z"/>
<path d="M4799 6613 c-13 -16 -12 -17 4 -4 9 7 17 15 17 17 0 8 -8 3 -21 -13z"/>
<path d="M3728 6613 c7 -3 16 -2 19 1 4 3 -2 6 -13 5 -11 0 -14 -3 -6 -6z"/>
<path d="M3690 6585 c-8 -9 -8 -15 -2 -15 12 0 26 19 19 26 -2 2 -10 -2 -17
-11z"/>
<path d="M3660 6554 c0 -8 5 -12 10 -9 6 4 8 11 5 16 -9 14 -15 11 -15 -7z"/>
<path d="M5152 6530 c-6 -11 -8 -21 -3 -25 5 -3 13 4 16 16 9 28 2 33 -13 9z"/>
<path d="M5206 6523 c-4 -4 -13 -8 -19 -8 -6 0 -25 -19 -41 -43 -30 -43 -30
-44 -12 -58 13 -9 45 -14 87 -14 37 0 71 -4 74 -10 3 -5 25 -10 48 -9 23 0 36
3 30 6 -21 8 -15 33 7 33 13 0 20 -7 20 -20 0 -37 71 -49 84 -14 7 18 21 18
39 -1 20 -19 97 -31 180 -27 48 2 39 22 -10 22 -26 0 -36 5 -40 19 -5 18 -55
31 -123 31 -19 0 -29 6 -33 20 -4 16 -2 18 12 11 10 -6 23 -6 31 -1 12 7 11
10 -3 16 -14 5 -15 9 -6 20 9 11 6 14 -17 16 -16 0 -36 0 -44 -1 -8 -1 -23 -3
-32 -4 -13 -1 -14 -5 -6 -14 6 -7 16 -13 23 -13 14 0 26 -46 18 -67 -3 -7 -15
-13 -27 -13 -21 1 -21 1 -2 15 27 20 12 31 -47 38 -37 3 -49 1 -57 -12 -7 -12
-13 -14 -26 -5 -30 18 -28 34 5 34 40 0 77 15 84 34 6 14 -5 16 -76 15 -45 0
-89 2 -98 6 -8 3 -19 2 -23 -2z"/>
<path d="M4015 6510 c-3 -5 -2 -10 4 -10 5 0 13 5 16 10 3 6 2 10 -4 10 -5 0
-13 -4 -16 -10z"/>
<path d="M5960 6330 c0 -11 21 -11 65 0 27 7 25 8 -17 9 -27 0 -48 -3 -48 -9z"/>
<path d="M3860 6320 c0 -5 7 -10 15 -10 8 0 15 5 15 10 0 6 -7 10 -15 10 -8 0
-15 -4 -15 -10z"/>
<path d="M6150 6318 c-23 -11 -21 -12 30 -18 56 -7 78 -1 66 19 -9 14 -63 13
-96 -1z"/>
<path d="M3822 6308 c-18 -18 -14 -27 8 -21 21 6 26 18 12 27 -5 3 -14 0 -20
-6z"/>
<path d="M4180 6310 c-9 -6 -10 -10 -3 -10 6 0 15 5 18 10 8 12 4 12 -15 0z"/>
<path d="M6348 6303 c12 -2 30 -2 40 0 9 3 -1 5 -23 4 -22 0 -30 -2 -17 -4z"/>
<path d="M3840 6265 c0 -8 2 -15 4 -15 2 0 6 7 10 15 3 8 1 15 -4 15 -6 0 -10
-7 -10 -15z"/>
<path d="M3896 6165 c-3 -8 -1 -15 4 -15 6 0 10 7 10 15 0 8 -2 15 -4 15 -2 0
-6 -7 -10 -15z"/>
<path d="M4646 6085 c-11 -8 -17 -17 -14 -20 3 -3 16 3 29 14 27 23 14 28 -15
6z"/>
<path d="M10290 5931 c-47 -10 -110 -44 -137 -73 -55 -58 -68 -160 -32 -235
25 -52 48 -69 159 -117 107 -47 155 -93 146 -139 -11 -57 -46 -81 -125 -85
-44 -3 -88 2 -122 11 -29 9 -54 15 -55 14 -1 -1 -4 -32 -8 -68 l-6 -67 32 -6
c140 -24 247 -13 321 34 81 51 126 168 97 254 -21 63 -58 96 -168 148 -155 73
-183 113 -123 180 27 30 33 32 97 33 38 0 88 -4 111 -8 l41 -8 7 56 c4 32 3
61 -2 66 -12 12 -188 20 -233 10z"/>
<path d="M13147 5926 c-101 -28 -194 -119 -233 -226 -22 -63 -29 -196 -14
-272 24 -122 82 -201 180 -247 46 -21 70 -25 150 -26 82 0 103 4 151 26 161
76 241 246 211 450 -20 139 -75 225 -178 275 -66 32 -191 42 -267 20z m153
-120 c54 -9 105 -57 130 -123 23 -63 28 -175 11 -240 -57 -211 -333 -218 -393
-9 -18 64 -16 184 5 238 21 53 92 124 134 134 15 3 33 7 38 9 6 2 17 2 25 0 8
-2 31 -6 50 -9z"/>
<path d="M8495 5918 c-2 -7 -27 -173 -55 -368 -28 -195 -52 -363 -54 -373 -4
-16 3 -18 67 -15 l72 3 31 250 c17 138 34 243 37 235 4 -8 42 -121 85 -250
l79 -235 68 0 68 0 79 235 c91 275 87 264 92 259 4 -3 76 -476 76 -494 0 -3
32 -5 70 -5 57 0 70 3 70 16 0 8 -25 179 -55 379 -30 201 -55 367 -55 370 0 3
-35 5 -78 5 l-78 0 -90 -265 c-49 -146 -91 -265 -94 -265 -3 0 -45 119 -93
265 l-89 265 -74 0 c-51 0 -76 -4 -79 -12z"/>
<path d="M9390 5642 c0 -321 5 -352 63 -412 55 -57 107 -74 227 -75 95 0 110
3 163 28 60 30 95 67 124 133 15 34 18 79 21 327 l4 287 -71 0 -71 0 0 -272
c0 -300 -3 -318 -63 -362 -41 -30 -163 -30 -204 0 -55 41 -58 55 -61 357 l-3
277 -65 0 -64 0 0 -288z"/>
<path d="M10680 5545 l0 -385 205 0 205 0 0 60 0 60 -135 0 -135 0 0 110 0
110 130 0 130 0 0 60 0 60 -130 0 -130 0 0 95 0 95 135 0 135 0 0 60 0 60
-205 0 -205 0 0 -385z"/>
<path d="M11222 5628 c3 -302 3 -303 28 -347 35 -62 84 -97 160 -117 125 -32
277 0 340 73 62 71 64 80 68 401 l3 292 -65 0 -66 0 0 -257 c-1 -296 -9 -342
-67 -376 -52 -30 -131 -33 -187 -9 -74 33 -76 44 -76 367 l0 275 -71 0 -70 0
3 -302z"/>
<path d="M12200 5544 l0 -386 173 4 c216 5 260 19 354 113 51 52 64 72 82 129
23 76 28 193 10 274 -23 107 -109 204 -207 232 -69 20 -163 25 -174 9 -7 -11
-11 -11 -15 -1 -3 8 -36 12 -114 12 l-109 0 0 -386z m339 254 c100 -26 158
-132 149 -272 -10 -156 -95 -236 -260 -244 l-88 -4 0 265 0 266 38 4 c46 5
104 0 161 -15z"/>
<path d="M14106 5906 c-138 -58 -216 -197 -216 -382 0 -289 207 -428 513 -347
l58 16 -7 61 c-4 34 -8 63 -10 65 -2 2 -22 -4 -45 -13 -57 -23 -155 -31 -207
-17 -59 16 -117 71 -136 128 -9 27 -16 80 -16 124 0 215 119 305 335 255 33
-8 60 -14 61 -13 1 1 5 30 9 63 8 77 10 76 -155 81 -116 3 -129 2 -184 -21z"/>
<path d="M14560 5545 l0 -385 70 0 70 0 0 385 0 385 -70 0 -70 0 0 -385z"/>
<path d="M14850 5545 l0 -385 65 0 65 0 2 261 3 261 160 -261 160 -261 77 0
78 0 0 385 0 385 -65 0 -65 0 0 -262 0 -261 -142 229 c-77 126 -150 244 -161
262 -19 32 -20 32 -98 32 l-79 0 0 -385z"/>
<path d="M15610 5545 l0 -385 205 0 205 0 0 60 0 60 -135 0 -135 0 0 110 0
110 130 0 130 0 0 60 0 60 -130 0 -130 0 0 95 0 95 135 0 135 0 0 60 0 60
-205 0 -205 0 0 -385z"/>
<path d="M16215 5898 c-9 -53 -105 -717 -105 -728 0 -6 31 -10 70 -10 60 0 70
3 70 18 2 37 57 472 61 476 3 3 42 -107 88 -245 l83 -249 67 0 67 0 84 249
c47 137 88 244 91 238 3 -7 21 -119 40 -249 l34 -238 72 0 73 0 -5 28 c-3 15
-28 178 -55 362 -28 184 -53 345 -55 358 -5 22 -9 23 -82 20 l-76 -3 -90 -263
c-49 -144 -93 -260 -96 -256 -3 3 -45 121 -92 262 l-86 257 -76 3 -76 3 -6
-33z"/>
<path d="M17295 5918 c-28 -78 -265 -727 -270 -740 -6 -16 0 -18 67 -18 l73 0
29 85 29 85 142 0 142 0 30 -82 29 -83 78 -3 c72 -3 78 -1 71 15 -3 10 -64
176 -135 368 -71 193 -132 358 -135 368 -6 14 -20 17 -76 17 -47 0 -71 -4 -74
-12z m119 -327 c25 -69 46 -128 46 -133 0 -4 -43 -8 -95 -8 -52 0 -95 3 -95 8
0 11 93 263 96 259 1 -1 23 -58 48 -126z"/>
<path d="M18260 5545 l0 -385 65 0 65 0 0 385 0 385 -65 0 -65 0 0 -385z"/>
<path d="M18790 5546 l0 -386 65 0 64 0 3 138 3 137 70 7 c87 8 134 27 190 79
58 54 78 108 73 197 -4 85 -35 138 -105 179 -46 27 -54 28 -205 31 l-158 4 0
-386z m229 263 c92 -19 130 -107 82 -185 -23 -37 -91 -67 -142 -62 l-34 3 -3
114 c-1 63 0 121 2 128 6 16 29 16 95 2z"/>
<path d="M4085 5839 c-14 -5 -1 -8 39 -8 33 -1 57 1 55 4 -10 9 -75 12 -94 4z"/>
<path d="M5573 5563 c15 -2 37 -2 50 0 12 2 0 4 -28 4 -27 0 -38 -2 -22 -4z"/>
<path d="M5773 5563 c26 -2 68 -2 95 0 26 2 4 3 -48 3 -52 0 -74 -1 -47 -3z"/>
<path d="M2701 5436 c-7 -8 -11 -30 -9 -48 2 -26 8 -34 27 -36 43 -7 67 50 35
82 -19 20 -38 20 -53 2z"/>
<path d="M5496 5378 c-2 -7 -9 -32 -15 -55 -12 -43 -42 -73 -73 -73 -29 0 -21
-28 10 -32 l27 -3 5 -185 c3 -102 9 -193 14 -203 12 -26 39 -37 89 -37 58 0
85 29 94 98 4 36 2 52 -6 52 -6 0 -11 -11 -11 -24 0 -44 -21 -86 -46 -92 -59
-15 -67 16 -62 241 l3 150 58 3 c77 4 72 26 -6 30 l-57 3 0 69 c0 42 -4 70
-10 70 -6 0 -12 -6 -14 -12z"/>
<path d="M17769 5299 c-21 -21 -22 -38 -4 -126 6 -26 1 -40 -26 -78 l-33 -46
32 -32 32 -31 41 39 c54 53 88 112 95 168 7 52 -8 102 -37 117 -30 17 -78 11
-100 -11z"/>
<path d="M18537 5308 c-29 -23 -39 -65 -22 -104 31 -75 138 -66 158 14 7 31
-10 80 -33 92 -26 14 -83 12 -103 -2z"/>
<path d="M19342 5297 c-22 -23 -29 -68 -16 -102 4 -8 20 -23 36 -31 85 -44
170 64 103 131 -33 34 -93 34 -123 2z"/>
<path d="M2252 5234 c-35 -17 -60 -40 -81 -71 -37 -55 -45 -94 -38 -179 6 -77
37 -131 97 -169 78 -49 188 -24 233 54 25 42 9 39 -42 -9 -34 -32 -49 -40 -80
-40 -84 0 -125 69 -125 210 -1 82 2 100 23 133 38 62 110 85 159 51 28 -19 28
-34 2 -34 -44 0 -38 -75 7 -86 21 -6 31 -2 46 17 34 42 6 108 -60 135 -47 20
-83 17 -141 -12z"/>
<path d="M3185 5249 c-11 -6 -35 -27 -52 -47 l-33 -37 0 43 0 42 -60 0 c-67 0
-82 -19 -32 -42 l27 -13 3 -173 2 -174 -30 -11 c-16 -6 -30 -17 -30 -24 0 -10
25 -13 100 -13 82 0 100 3 100 15 0 8 -9 15 -19 15 -42 0 -51 25 -51 139 0 67
6 127 15 159 25 82 89 117 131 71 17 -19 19 -41 22 -210 l3 -189 65 0 c50 0
64 3 64 15 0 8 -8 15 -18 15 -37 0 -42 19 -42 164 0 78 -5 158 -10 178 -19 67
-99 107 -155 77z"/>
<path d="M3678 5240 c-146 -78 -144 -359 4 -436 35 -18 111 -18 148 1 33 17
86 82 76 93 -4 4 -17 -4 -29 -18 -95 -111 -209 -60 -219 98 l-3 47 128 3 127
3 0 32 c0 81 -45 157 -107 183 -44 19 -81 17 -125 -6z m107 -26 c28 -18 45
-62 45 -115 l0 -39 -91 0 -90 0 7 48 c15 104 66 147 129 106z"/>
<path d="M4272 5246 c-13 -7 -32 -26 -43 -42 l-19 -29 0 38 0 37 -66 0 c-57 0
-65 -2 -62 -17 2 -10 12 -19 23 -22 11 -2 23 -8 27 -15 4 -6 8 -85 8 -177 0
-171 -4 -189 -42 -189 -10 0 -18 -7 -18 -15 0 -12 17 -15 95 -15 78 0 95 3 95
15 0 8 -6 15 -14 15 -37 0 -46 28 -46 148 0 64 4 134 9 155 18 77 85 112 127
66 17 -19 19 -41 22 -210 l4 -189 64 0 c50 0 64 3 64 15 0 8 -8 15 -18 15 -36
0 -42 20 -42 144 0 67 3 138 6 158 14 81 94 118 131 61 15 -23 19 -56 22 -210
l3 -183 64 0 c50 0 64 3 64 15 0 8 -8 15 -18 15 -37 0 -42 19 -42 171 0 81 -5
160 -11 176 -36 95 -145 110 -201 27 -28 -41 -34 -42 -42 -9 -8 30 -60 65 -96
65 -14 -1 -35 -6 -48 -14z"/>
<path d="M4973 5244 c-40 -17 -63 -50 -63 -89 0 -57 47 -75 77 -29 16 25 16
28 0 55 -15 27 -15 29 3 39 28 15 68 12 101 -7 27 -16 29 -22 29 -76 0 -58 0
-58 -37 -73 -80 -31 -141 -66 -168 -94 -23 -24 -28 -39 -28 -76 0 -40 4 -51
31 -76 58 -51 162 -35 197 31 l13 26 7 -27 c10 -39 39 -62 70 -54 40 10 65 41
65 82 0 42 -15 38 -24 -7 -4 -22 -11 -30 -23 -27 -16 3 -19 21 -23 168 -4 110
-10 174 -19 192 -26 51 -136 74 -208 42z m131 -360 c-32 -68 -115 -76 -129
-13 -14 65 18 116 100 157 l40 20 3 -64 c2 -45 -2 -75 -14 -100z"/>
<path d="M5925 5243 c-76 -40 -115 -112 -115 -214 0 -76 13 -120 48 -167 71
-96 204 -97 272 -2 39 55 18 55 -38 0 -33 -33 -46 -40 -79 -40 -65 0 -103 51
-118 158 l-7 52 131 0 131 0 0 33 c0 139 -121 235 -225 180z m96 -30 c31 -18
49 -62 49 -120 l0 -33 -90 0 c-101 0 -97 -4 -79 79 7 34 19 57 36 71 31 24 46
25 84 3z"/>
<path d="M6461 5234 c-155 -78 -171 -312 -28 -415 72 -52 188 -31 231 43 23
39 10 51 -16 15 -73 -100 -191 -64 -218 68 -15 71 -8 171 15 215 19 36 70 70
105 70 53 0 104 -45 58 -52 -19 -2 -23 -9 -23 -38 0 -29 5 -36 28 -44 36 -13
61 11 61 58 0 41 -25 73 -71 92 -47 20 -83 17 -142 -12z"/>
<path d="M6949 5247 c-57 -26 -84 -68 -73 -113 7 -28 47 -42 69 -24 18 15 20
76 3 86 -18 11 21 34 58 34 17 0 43 -9 58 -21 22 -18 26 -28 26 -75 0 -54 -1
-55 -37 -70 -192 -76 -250 -159 -169 -240 29 -29 41 -34 81 -34 54 0 110 29
120 61 6 18 8 17 23 -12 24 -45 43 -55 80 -40 33 14 56 56 50 93 -4 22 -5 22
-12 3 -14 -37 -23 -50 -37 -50 -21 0 -27 40 -28 195 -1 162 -7 181 -67 206
-40 17 -109 17 -145 1z m136 -323 c-11 -75 -97 -126 -132 -78 -18 25 -16 85 4
114 21 31 38 44 88 70 l40 20 3 -42 c2 -24 1 -61 -3 -84z"/>
<path d="M2640 5236 c0 -8 12 -21 28 -28 l27 -13 3 -155 c3 -180 0 -198 -33
-206 -14 -3 -25 -12 -25 -20 0 -11 21 -14 95 -14 78 0 95 3 95 15 0 8 -8 15
-18 15 -39 0 -42 17 -42 222 l0 198 -65 0 c-50 0 -65 -3 -65 -14z"/>
<path d="M3807 4573 c-2 -5 -7 -24 -11 -44 -9 -49 -41 -89 -72 -89 -15 0 -24
-6 -24 -15 0 -10 10 -15 29 -15 l29 0 4 -189 c3 -185 4 -190 27 -215 19 -20
34 -26 67 -26 62 0 93 30 101 98 4 36 2 52 -6 52 -6 0 -11 -11 -11 -24 0 -72
-51 -119 -88 -82 -15 14 -17 42 -17 199 l0 182 58 3 c75 4 72 25 -4 32 l-54 5
-3 68 c-3 59 -12 82 -25 60z"/>
<path d="M4980 4480 c-11 -11 -20 -27 -20 -35 0 -18 1 -18 -39 -4 -18 6 -51 8
-76 4 -125 -18 -164 -167 -67 -252 24 -22 32 -33 21 -33 -9 0 -28 -11 -43 -25
-35 -33 -36 -81 -1 -97 27 -12 33 -28 11 -28 -8 0 -26 -14 -40 -31 -70 -83 7
-179 144 -179 112 0 190 65 190 156 -1 84 -35 110 -166 123 -85 9 -124 26
-110 50 8 13 72 31 111 31 73 0 142 86 132 163 -3 22 -15 53 -26 68 -25 33
-28 69 -6 69 8 0 15 -9 15 -20 0 -25 25 -36 45 -20 19 16 19 44 -1 64 -21 22
-50 20 -74 -4z m-63 -84 c26 -22 28 -30 28 -94 0 -84 -18 -112 -72 -112 -50 0
-75 45 -70 124 3 49 8 63 31 83 34 29 48 29 83 -1z m48 -412 c91 -43 27 -154
-90 -154 -78 0 -142 69 -116 126 24 53 125 67 206 28z"/>
<path d="M2293 4435 c-18 -8 -38 -25 -45 -40 -16 -35 -28 -31 -28 10 l0 35
-62 -7 c-35 -3 -65 -7 -67 -9 -8 -7 12 -24 30 -24 12 0 23 -10 29 -26 13 -33
13 -465 1 -498 -6 -14 -19 -26 -32 -28 -12 -2 -24 -9 -27 -15 -3 -10 22 -13
102 -13 88 0 106 3 106 15 0 9 -9 15 -23 15 -39 0 -47 18 -47 109 1 83 1 85
18 65 75 -90 206 -37 247 98 38 130 -9 276 -101 314 -41 17 -60 17 -101 -1z
m85 -40 c18 -15 34 -41 41 -69 14 -58 14 -175 0 -232 -19 -75 -88 -108 -137
-65 -71 61 -68 302 5 369 31 29 54 28 91 -3z"/>
<path d="M2848 4441 c-84 -27 -138 -114 -138 -221 0 -110 36 -182 110 -220
152 -78 310 81 270 272 -15 67 -55 130 -100 153 -37 19 -107 27 -142 16z m109
-45 c39 -33 53 -84 53 -193 0 -143 -44 -206 -133 -189 -30 6 -39 14 -59 54
-31 65 -33 226 -3 287 33 66 92 83 142 41z"/>
<path d="M3470 4437 c-14 -7 -35 -32 -47 -57 l-22 -45 -1 53 0 52 -65 0 c-72
0 -88 -17 -35 -37 l30 -11 0 -174 c0 -180 -4 -198 -42 -198 -10 0 -18 -7 -18
-15 0 -12 18 -15 105 -15 87 0 105 3 105 15 0 8 -9 15 -20 15 -11 0 -30 10
-41 21 -20 20 -21 29 -16 113 6 114 22 186 50 227 30 45 51 50 43 12 -8 -35
11 -56 46 -51 19 2 24 10 26 40 2 28 -2 40 -20 52 -27 19 -45 20 -78 3z"/>
<path d="M5945 4438 c-70 -25 -116 -98 -123 -198 -7 -107 26 -190 97 -237 65
-44 167 -24 218 44 38 49 20 52 -32 4 -49 -45 -92 -54 -133 -25 -33 23 -60 83
-63 139 l-3 50 132 3 c96 2 132 6 132 15 -1 25 -22 102 -37 134 -28 60 -122
96 -188 71z m79 -28 c31 -11 51 -50 60 -112 l7 -48 -93 0 -94 0 6 53 c7 62 23
95 53 107 29 12 32 12 61 0z"/>
<path d="M6433 4439 c-39 -11 -73 -57 -80 -109 -8 -59 24 -104 93 -129 30 -12
57 -21 60 -21 3 0 21 -7 39 -16 88 -41 57 -154 -42 -154 -42 0 -91 40 -116 93
-12 26 -25 47 -29 47 -5 0 -8 -36 -8 -80 0 -44 2 -80 5 -80 3 0 14 5 25 12 15
10 26 9 55 -5 45 -21 107 -22 151 -1 44 21 74 78 74 140 0 64 -40 103 -137
132 -49 15 -78 31 -92 48 -26 33 -26 45 -2 75 15 19 29 24 64 24 51 0 86 -25
107 -76 22 -52 40 -36 40 36 0 49 -3 65 -14 65 -8 0 -16 -5 -18 -11 -3 -8 -18
-6 -51 5 -53 18 -76 19 -124 5z"/>
<path d="M6931 4437 c-44 -17 -71 -51 -71 -91 0 -54 40 -74 73 -38 21 23 22
50 1 73 -16 17 -15 19 12 30 35 13 92 5 113 -16 10 -10 16 -34 16 -71 l0 -57
-39 -13 c-140 -49 -196 -98 -196 -169 0 -62 31 -95 93 -102 58 -7 104 11 126
48 l18 29 16 -35 c15 -31 21 -35 57 -35 44 0 65 21 76 78 8 40 -11 44 -21 5
-8 -33 -25 -46 -42 -31 -9 8 -13 49 -13 152 0 157 -10 209 -44 231 -31 21
-133 28 -175 12z m149 -237 c0 -56 -22 -133 -46 -157 -45 -45 -114 -19 -114
45 0 50 56 116 120 140 32 12 40 7 40 -28z"/>
<path d="M4110 4426 c0 -8 10 -18 23 -22 12 -4 25 -12 29 -18 4 -6 8 -75 8
-154 0 -98 4 -153 14 -176 20 -47 61 -76 109 -76 34 0 46 6 78 40 21 22 41 40
44 40 3 0 5 -16 5 -35 l0 -35 60 0 c47 0 60 3 60 15 0 8 -8 15 -18 15 -39 0
-42 17 -42 222 l0 199 -67 -3 c-71 -3 -95 -21 -44 -33 40 -9 44 -24 39 -172
-2 -91 -7 -127 -22 -157 -22 -43 -67 -69 -101 -56 -39 14 -45 45 -45 238 l0
182 -65 0 c-50 0 -65 -3 -65 -14z"/>
<path d="M5230 4427 c0 -8 11 -19 25 -25 25 -11 25 -13 25 -141 0 -164 12
-222 52 -256 53 -45 145 -22 180 45 12 24 13 24 16 -17 l3 -43 60 0 c46 0 59
3 59 15 0 8 -6 15 -14 15 -8 0 -22 7 -30 16 -13 13 -16 46 -16 210 l0 194 -65
0 c-72 0 -88 -17 -35 -37 l30 -11 0 -124 c0 -67 -5 -140 -11 -160 -15 -55 -48
-89 -87 -90 -61 -2 -72 38 -72 273 l0 149 -60 0 c-43 0 -60 -4 -60 -13z"/>
<path d="M3460 3701 c0 -132 18 -151 22 -23 l3 87 28 -87 c17 -55 33 -88 41
-88 9 0 26 34 44 88 l30 87 1 -87 c1 -72 4 -88 16 -88 24 0 17 213 -6 218 -13
2 -23 -17 -44 -85 -16 -48 -31 -92 -36 -97 -4 -5 -13 11 -19 35 -23 91 -45
144 -63 147 -15 3 -17 -7 -17 -107z"/>
<path d="M3710 3718 c0 -99 3 -109 37 -127 32 -16 68 -14 94 8 22 17 24 27 24
112 0 65 -4 93 -12 96 -10 4 -13 -18 -13 -86 0 -84 -2 -92 -24 -106 -17 -11
-30 -13 -48 -6 -33 13 -38 28 -38 122 0 46 -4 79 -10 79 -6 0 -10 -37 -10 -92z"/>
<path d="M3942 3794 c-25 -17 -30 -65 -8 -83 8 -6 33 -17 56 -24 58 -17 73
-42 41 -68 -32 -26 -48 -24 -82 12 -34 36 -51 31 -29 -9 22 -37 71 -50 116
-29 29 14 34 22 34 52 0 34 -3 38 -47 56 -63 26 -76 34 -80 45 -5 16 11 32 39
39 20 5 32 1 48 -15 12 -12 26 -20 33 -17 7 2 1 14 -15 30 -31 31 -72 35 -106
11z"/>
<path d="M4120 3700 l0 -110 75 0 c43 0 75 4 75 10 0 6 -29 10 -66 10 l-65 0
3 38 3 37 58 3 c76 4 74 22 -3 22 l-60 0 0 35 0 34 63 3 c85 4 78 22 -10 26
l-73 3 0 -111z"/>
<path d="M4317 3803 c-11 -11 -8 -137 4 -172 19 -54 75 -68 123 -30 25 19 26
25 26 115 0 56 -4 94 -10 94 -6 0 -10 -33 -10 -79 0 -94 -5 -109 -38 -122 -18
-7 -31 -5 -48 6 -22 14 -24 22 -24 105 0 83 -5 101 -23 83z"/>
<path d="M5160 3701 l0 -111 56 0 c30 0 64 4 74 10 43 23 50 148 10 185 -11
10 -43 19 -79 22 l-61 6 0 -112z m124 63 c11 -10 16 -34 16 -69 0 -67 -16 -85
-76 -85 l-44 0 0 85 0 85 44 0 c27 0 51 -6 60 -16z"/>
<path d="M5412 3794 c-28 -19 -52 -65 -52 -99 0 -55 50 -115 97 -115 96 0 139
135 63 203 -34 31 -74 35 -108 11z m101 -32 c12 -11 17 -30 17 -68 0 -45 -4
-56 -26 -73 -35 -27 -59 -26 -89 4 -27 26 -34 89 -14 126 21 39 74 45 112 11z"/>
<path d="M5709 3781 c-25 -26 -29 -37 -29 -86 0 -49 4 -60 29 -86 19 -19 40
-29 59 -29 36 0 82 34 82 61 0 24 -17 25 -24 1 -4 -11 -17 -25 -31 -32 -33
-17 -71 -1 -86 37 -13 35 -5 101 15 121 23 24 75 19 96 -8 13 -17 19 -20 25
-10 12 20 -40 60 -76 60 -20 0 -40 -10 -60 -29z"/>
<path d="M5900 3700 c0 -67 4 -110 10 -110 6 0 10 43 10 110 0 67 -4 110 -10
110 -6 0 -10 -43 -10 -110z"/>
<path d="M5980 3700 c0 -67 4 -110 10 -110 6 0 10 32 10 75 0 41 4 75 9 75 5
0 29 -33 53 -72 25 -40 52 -74 61 -76 15 -3 17 9 17 107 0 67 -4 111 -10 111
-6 0 -10 -33 -10 -80 0 -44 -4 -80 -9 -80 -5 0 -28 33 -52 73 -70 120 -79 117
-79 -23z"/>
<path d="M6200 3700 l0 -110 76 0 c47 0 73 4 69 10 -3 6 -33 10 -66 10 l-59 0
0 40 0 40 55 0 c30 0 55 5 55 10 0 6 -25 10 -55 10 l-55 0 0 35 0 35 60 0 c47
0 60 3 60 15 0 12 -14 15 -70 15 l-70 0 0 -110z"/>
<path d="M6390 3700 c0 -67 4 -110 10 -110 6 0 10 33 10 80 0 47 4 80 10 80 6
0 10 -6 10 -14 0 -33 42 -146 54 -146 8 0 23 29 35 68 34 105 41 107 41 15 0
-68 3 -83 15 -83 24 0 17 213 -7 218 -12 2 -22 -16 -43 -80 -34 -104 -41 -118
-48 -92 -44 158 -51 174 -68 174 -17 0 -19 -10 -19 -110z"/>
<path d="M6676 3768 c-9 -24 -27 -73 -40 -110 -19 -52 -22 -68 -11 -68 7 0 16
14 20 30 6 28 9 30 56 30 47 0 51 -2 60 -30 6 -16 17 -30 24 -30 10 0 7 18
-12 68 -14 37 -32 86 -40 110 -8 23 -21 42 -28 42 -7 0 -20 -19 -29 -42z m58
-66 c7 -20 4 -22 -29 -22 -31 0 -36 3 -30 18 4 9 12 33 17 52 l10 34 13 -30
c7 -17 16 -40 19 -52z"/>
<path d="M7000 3700 c0 -67 4 -110 10 -110 6 0 10 43 10 110 0 67 -4 110 -10
110 -6 0 -10 -43 -10 -110z"/>
<path d="M7080 3701 c0 -63 4 -111 9 -111 6 0 11 19 13 43 l3 42 53 5 c58 6
72 18 72 66 0 43 -21 57 -91 62 l-59 4 0 -111z m124 57 c19 -30 -4 -53 -58
-56 l-46 -3 0 34 c0 18 3 37 7 41 14 14 86 1 97 -16z"/>
<path d="M6843 3575 c1 -21 4 -30 9 -22 11 17 10 57 -1 57 -5 0 -9 -16 -8 -35z"/>
</g>
</svg>
