<?xml version="1.0" standalone="no"?>
<!DOCTYPE svg PUBLIC "-//W3C//DTD SVG 20010904//EN"
 "http://www.w3.org/TR/2001/REC-SVG-20010904/DTD/svg10.dtd">
<svg version="1.0" xmlns="http://www.w3.org/2000/svg"
 width="2486.000000pt" height="1165.000000pt" viewBox="0 0 2486.000000 1165.000000"
 preserveAspectRatio="xMidYMid meet">

<g transform="translate(0.000000,1165.000000) scale(0.100000,-0.100000)"
fill="#000000" stroke="none">
<path d="M4550 8730 c-499 -189 -885 -492 -1173 -923 -87 -130 -222 -404 -282
-570 -88 -248 -157 -556 -190 -861 -29 -259 -35 -570 -34 -1766 l0 -1195 33
130 c120 470 344 873 666 1195 247 248 509 420 837 548 70 28 163 60 206 73
l77 22 0 152 0 152 -54 7 c-120 14 -272 84 -382 177 -48 41 -139 145 -162 185
-8 14 -19 13 -103 -9 -110 -30 -198 -66 -227 -95 -23 -23 -24 -23 -65 49 -14
26 -24 49 -21 51 3 3 -11 43 -30 89 -46 111 -78 239 -79 319 l-2 65 53 9 c61
10 72 3 72 -52 0 -81 72 -330 101 -347 5 -3 52 8 104 24 52 17 102 31 111 31
12 0 15 6 11 23 -33 143 -37 173 -37 320 l0 157 -27 -6 c-220 -50 -378 -109
-402 -151 -8 -14 -10 1 -11 59 0 42 4 79 9 82 4 3 11 34 14 68 7 70 47 233 71
291 l16 37 54 -36 54 -35 -19 -55 c-18 -51 -50 -186 -45 -191 1 -1 39 9 85 22
45 13 109 30 142 36 l59 12 0 81 0 82 -32 13 c-107 44 -229 81 -265 81 -24 0
-43 2 -43 5 0 3 23 50 50 105 34 69 56 100 68 100 9 0 31 19 47 41 46 62 202
210 274 258 146 99 368 183 524 198 l69 6 -7 -49 c-11 -81 -11 -81 -68 -87
-121 -15 -291 -75 -397 -142 l-55 -35 273 0 272 0 0 645 c0 608 -1 645 -17
645 -10 0 -65 -18 -123 -40z m-591 -2849 c82 -93 204 -183 326 -243 100 -48
268 -98 331 -98 36 0 39 -4 49 -87 l7 -52 -39 5 c-279 38 -473 124 -686 307
-58 50 -191 207 -182 215 3 3 22 8 42 12 82 16 86 14 152 -59z"/>
<path d="M6850 8733 c-19 -2 -107 -10 -195 -19 -577 -55 -1208 -183 -1727
-350 l-108 -35 0 -270 0 -269 40 0 c54 0 178 -26 270 -56 210 -70 408 -206
540 -371 34 -43 70 -82 80 -86 17 -9 94 -136 87 -144 -2 -2 -24 6 -49 17 -49
21 -222 70 -250 70 -17 0 -18 -16 -18 -197 l0 -198 128 -31 c70 -18 135 -35
146 -39 17 -7 18 -4 11 36 -12 70 -54 198 -91 273 -19 37 -34 69 -34 70 0 1
33 -1 72 -6 48 -5 77 -13 84 -23 24 -32 85 -237 99 -329 7 -52 19 -104 24
-115 11 -20 15 -131 5 -131 -3 0 -20 11 -37 24 -44 33 -140 70 -277 106 -63
16 -118 30 -122 30 -5 0 -8 -75 -8 -167 l1 -168 108 -87 109 -86 16 41 c25 66
53 186 61 259 7 76 -2 72 97 47 35 -9 37 -11 32 -47 -14 -103 -39 -203 -71
-291 -19 -53 -38 -112 -41 -131 -2 -19 -31 -74 -64 -123 l-60 -89 -15 29 c-23
45 -119 135 -239 225 -7 5 -24 -13 -48 -52 -108 -175 -302 -310 -501 -348
l-85 -17 0 -78 0 -79 28 6 c15 3 52 8 82 12 186 22 408 135 570 291 l82 77 54
-28 54 -28 -41 -49 c-159 -191 -443 -349 -694 -389 -38 -6 -85 -13 -102 -16
l-33 -5 0 -124 0 -124 -42 -11 c-213 -54 -356 -105 -543 -194 -490 -234 -884
-594 -1040 -951 l-27 -60 86 91 c304 325 713 530 1310 659 89 19 312 61 496
95 576 104 800 165 1045 284 255 124 436 282 580 505 146 226 249 557 289 926
26 239 56 1276 56 1933 l0 312 -72 -2 c-40 0 -89 -3 -108 -5z"/>
<path d="M12860 7964 c-91 -63 -164 -119 -163 -124 6 -23 75 -120 85 -120 6 0
88 46 183 102 l172 102 -51 78 c-28 43 -53 78 -56 78 -3 0 -80 -52 -170 -116z"/>
<path d="M4820 7573 l0 -93 267 0 268 0 -39 26 c-105 72 -283 135 -423 152
l-73 8 0 -93z"/>
<path d="M8648 7613 l-198 -3 0 -70 c0 -38 5 -72 10 -75 6 -3 48 -11 95 -18
l85 -11 0 -557 0 -557 -27 -6 c-16 -2 -50 -8 -78 -11 -88 -11 -85 -8 -85 -86
l0 -69 290 0 291 0 -3 73 -3 72 -65 11 c-36 7 -68 12 -72 13 -5 1 -8 105 -8
232 0 210 1 230 17 227 9 -2 100 -137 211 -316 l195 -312 173 0 174 0 0 74 0
74 -77 11 c-42 6 -78 12 -78 14 -1 1 -76 113 -167 248 l-164 247 59 16 c132
37 221 104 278 208 33 62 34 66 34 183 0 111 -2 124 -28 176 -48 99 -128 158
-263 194 -66 18 -266 24 -596 18z m537 -228 c77 -39 105 -89 105 -183 0 -162
-105 -245 -310 -246 l-95 -1 -3 234 -2 233 123 -3 c114 -4 128 -6 182 -34z"/>
<path d="M11108 7613 l-198 -3 0 -74 c0 -84 -8 -77 118 -92 l62 -7 0 -558 0
-558 -35 -6 c-19 -3 -52 -7 -72 -11 -74 -10 -73 -9 -73 -85 l0 -69 305 0 305
0 0 69 c0 78 3 75 -85 86 -27 3 -62 9 -77 11 l-28 6 0 177 0 178 123 6 c68 3
146 13 177 22 151 46 273 146 333 272 31 66 32 72 32 198 0 125 -1 133 -31
195 -53 111 -153 188 -291 226 -65 17 -253 23 -565 17z m483 -209 c73 -22 131
-80 153 -153 43 -145 -11 -274 -142 -338 -49 -24 -72 -28 -164 -32 l-108 -3 0
271 0 271 103 0 c66 0 123 -6 158 -16z"/>
<path d="M13978 7613 l-298 -3 0 -74 0 -73 30 -6 c16 -4 59 -9 95 -13 l65 -7
0 -558 0 -558 -32 -5 c-18 -3 -55 -8 -82 -11 -77 -10 -76 -10 -76 -85 l0 -68
325 -7 c401 -9 489 1 615 72 216 122 285 405 143 591 -31 41 -103 89 -157 103
l-39 11 52 29 c69 40 124 98 158 167 24 50 28 68 28 147 -1 70 -5 100 -22 136
-61 134 -194 203 -413 211 -52 2 -229 2 -392 1z m452 -208 c85 -29 130 -92
130 -182 -1 -91 -51 -162 -145 -204 -42 -19 -73 -24 -182 -27 l-133 -4 0 215
0 216 43 4 c77 9 241 -2 287 -18z m-39 -611 c79 -18 141 -59 174 -114 28 -49
27 -150 -2 -206 -53 -101 -140 -139 -313 -139 -63 0 -123 3 -132 7 -16 7 -18
28 -18 238 l0 230 111 0 c65 0 139 -7 180 -16z"/>
<path d="M17330 7605 c-36 -8 -107 -36 -159 -61 -191 -94 -311 -270 -351 -516
-15 -96 -12 -317 6 -406 23 -116 90 -247 164 -321 77 -76 190 -134 309 -157
154 -30 401 -12 574 42 17 5 18 14 12 112 -4 59 -8 108 -9 109 -1 1 -36 -9
-79 -22 -246 -79 -488 -41 -611 96 -84 92 -121 237 -114 434 8 188 54 305 157
398 80 71 142 91 281 91 157 -1 165 -5 174 -91 12 -121 5 -113 107 -113 l89 0
-2 192 -3 192 -60 14 c-92 20 -405 25 -485 7z"/>
<path d="M9752 7538 l3 -73 93 -14 92 -14 0 -558 0 -558 -32 -5 c-18 -3 -55
-8 -82 -11 -77 -10 -76 -9 -76 -86 l0 -69 485 0 485 0 0 180 0 180 -85 0 -84
0 -6 -32 c-3 -18 -9 -55 -13 -83 l-7 -50 -178 -3 -177 -2 0 235 0 235 140 0
c137 0 140 0 144 -22 3 -13 9 -41 13 -63 l9 -40 77 -3 77 -3 0 221 0 221 -77
-3 c-86 -3 -80 3 -98 -101 l-6 -38 -137 3 -137 3 -3 218 -2 217 175 0 c96 0
175 -1 176 -2 0 -2 6 -37 12 -78 l12 -75 88 -3 87 -3 0 176 0 175 -485 0 -486
0 3 -72z"/>
<path d="M12100 7536 l0 -74 50 -11 c28 -6 59 -11 70 -11 18 0 19 -17 22 -472
4 -458 4 -475 26 -540 61 -181 194 -274 425 -298 189 -19 367 13 483 88 72 47
115 96 154 178 52 108 60 191 60 640 0 394 0 404 20 404 10 0 42 5 70 11 l50
11 0 74 0 74 -270 0 -270 0 0 -74 c0 -84 -5 -79 103 -92 l57 -7 0 -427 c0
-403 -1 -432 -20 -494 -23 -74 -64 -128 -119 -156 -56 -28 -153 -43 -239 -37
-190 14 -270 89 -292 277 -6 48 -9 248 -8 460 l3 375 50 7 c28 4 65 10 83 13
l32 6 0 74 0 75 -270 0 -270 0 0 -74z"/>
<path d="M15010 7536 l0 -73 30 -6 c16 -4 59 -9 95 -13 l65 -7 0 -558 0 -557
-27 -6 c-16 -2 -50 -8 -78 -11 -88 -11 -85 -8 -85 -86 l0 -69 475 0 475 0 0
190 0 190 -84 0 -84 0 -12 -72 c-20 -133 4 -118 -185 -118 l-165 0 0 549 0
548 65 7 c36 4 79 9 95 13 l30 6 0 73 0 74 -305 0 -305 0 0 -74z"/>
<path d="M16050 7535 c0 -53 4 -75 13 -76 6 0 48 -6 92 -12 l80 -12 3 -557 2
-557 -32 -5 c-18 -3 -55 -8 -82 -11 -77 -10 -76 -9 -76 -86 l0 -69 305 0 305
0 0 69 c0 78 3 75 -85 86 -27 3 -62 9 -77 11 l-28 6 0 559 0 559 26 0 c14 0
56 5 95 11 l69 12 0 73 0 74 -305 0 -305 0 0 -75z"/>
<path d="M18361 6961 l-233 -649 -49 -6 c-80 -11 -79 -10 -79 -87 l0 -69 265
0 265 0 0 69 c0 79 2 77 -95 87 -36 4 -65 10 -65 13 0 3 9 31 20 61 11 30 28
74 36 98 l16 42 288 0 288 0 36 -101 c20 -55 36 -102 36 -103 0 -2 -29 -6 -65
-10 -97 -10 -95 -8 -95 -87 l0 -69 275 0 275 0 0 69 c0 77 1 76 -78 87 l-49 6
-235 647 -236 646 -144 3 -144 3 -233 -650z m388 327 c11 -42 61 -188 111
-323 49 -135 90 -247 90 -250 0 -3 -99 -5 -220 -5 -121 0 -220 4 -220 9 0 5
41 120 90 257 50 137 98 281 108 321 9 39 18 71 18 70 1 -1 11 -37 23 -79z"/>
<path d="M4032 6868 l3 -553 28 -80 c69 -195 196 -340 373 -426 101 -49 191
-69 314 -69 124 0 215 20 315 70 148 73 254 179 328 326 72 142 70 129 74 737
l4 547 -721 0 -721 0 3 -552z m169 470 c-2 -25 1 -38 9 -38 8 0 10 8 6 23 -5
20 -2 23 22 22 27 0 27 -1 27 -65 0 -36 4 -75 8 -87 8 -23 8 -23 -91 -23 -103
0 -119 4 -101 27 7 7 9 30 6 53 -3 22 -1 43 5 46 5 3 7 16 4 28 -4 18 -1 22
19 22 20 0 23 -4 19 -23 -4 -13 -2 -23 4 -23 14 0 25 35 18 58 -5 14 0 18 22
17 25 0 27 -2 23 -37z m571 0 c-3 -26 -1 -38 8 -38 8 0 10 8 7 23 -5 19 -2 22
21 22 27 1 27 0 30 -69 1 -38 7 -75 12 -81 17 -21 -1 -25 -102 -25 l-98 0 6
27 c4 15 8 55 8 88 1 59 2 61 28 60 23 0 26 -3 21 -22 -3 -15 -1 -23 7 -23 8
0 11 13 9 38 -4 34 -2 37 22 37 25 1 26 -1 21 -37z m570 0 c-3 -26 -1 -38 8
-38 8 0 10 8 7 23 -5 19 -2 22 21 22 27 1 27 0 28 -67 1 -38 7 -74 13 -81 18
-23 2 -27 -99 -27 -99 0 -117 4 -100 25 5 6 11 43 12 81 3 69 3 70 30 69 23 0
26 -3 21 -22 -3 -15 -1 -23 7 -23 9 0 11 12 8 38 -5 36 -4 38 22 37 26 0 27
-2 22 -37z m-162 -566 c0 -380 -4 -422 -51 -514 -27 -54 -110 -141 -163 -172
-71 -41 -149 -59 -240 -54 -111 7 -182 36 -258 106 -72 67 -100 109 -128 191
-19 56 -20 85 -20 431 l0 370 430 0 430 0 0 -358z m-979 -24 c-2 -25 1 -38 9
-38 7 0 10 8 7 20 -4 16 0 20 21 20 26 0 27 -2 27 -62 0 -35 4 -73 8 -85 8
-23 8 -23 -92 -23 -92 0 -127 9 -100 25 5 4 9 24 8 44 -2 20 0 42 5 49 4 7 5
21 1 31 -3 11 0 21 8 24 21 8 39 -7 31 -26 -3 -9 -1 -17 4 -17 14 0 25 36 18
58 -5 14 0 18 22 17 25 0 27 -2 23 -37z m1141 0 c-3 -26 -1 -38 8 -38 7 0 10
8 7 19 -3 15 2 20 22 23 26 4 26 3 27 -57 0 -33 4 -73 8 -88 l6 -27 -100 0
-100 0 6 24 c3 13 6 53 7 88 2 63 2 64 28 60 20 -3 25 -8 22 -23 -3 -11 0 -19
7 -19 9 0 11 12 8 38 -5 36 -4 38 22 37 26 0 27 -2 22 -37z m-983 -598 c5 0
23 -13 39 -30 17 -16 38 -30 46 -30 31 0 15 -28 -55 -95 l-71 -69 -13 31 c-7
17 -25 39 -39 48 -14 10 -26 24 -26 31 0 8 -6 17 -14 20 -8 3 -12 12 -9 20 3
8 9 11 14 8 5 -3 9 0 9 7 0 6 8 1 18 -12 12 -14 21 -18 25 -12 4 6 -6 22 -22
36 -28 23 -29 26 -14 44 16 19 17 19 44 -11 15 -17 31 -27 36 -23 4 5 -3 17
-17 29 -14 11 -20 17 -14 14 6 -3 17 4 24 15 14 19 15 19 22 -1 4 -11 12 -20
17 -20z m837 -8 c-9 -2 -16 -10 -16 -18 0 -20 35 -1 50 26 10 19 11 19 28 2
17 -16 16 -18 -13 -46 -22 -21 -26 -30 -16 -34 8 -3 19 2 25 10 9 12 13 11 27
-3 15 -15 15 -17 -2 -28 -11 -6 -19 -18 -19 -26 0 -8 -5 -15 -11 -15 -16 0
-48 -42 -49 -62 0 -10 -3 -18 -7 -18 -10 0 -153 142 -153 152 0 5 7 8 15 8 22
0 65 30 65 45 0 7 11 16 25 19 14 4 25 14 25 23 0 12 5 11 21 -8 18 -21 18
-24 5 -27z"/>
<path d="M4163 7262 c-10 -7 -33 -46 -33 -56 0 -3 20 -6 45 -6 46 0 53 7 35
39 -11 22 -33 32 -47 23z"/>
<path d="M4727 7252 c-31 -34 -22 -52 28 -52 38 0 43 3 38 18 -7 20 -33 52
-43 52 -4 0 -14 -8 -23 -18z"/>
<path d="M5297 7252 c-30 -33 -22 -52 23 -52 32 0 40 4 40 18 0 17 -28 52 -42
52 -3 0 -12 -8 -21 -18z"/>
<path d="M4660 6939 c0 -87 1 -92 29 -120 31 -31 64 -36 105 -18 38 18 56 66
56 153 l0 76 -95 0 -95 0 0 -91z m60 37 c0 -8 -4 -17 -8 -20 -13 -8 -35 11
-28 23 10 16 36 14 36 -3z m100 -1 c0 -8 -9 -15 -20 -15 -11 0 -20 7 -20 15 0
8 9 15 20 15 11 0 20 -7 20 -15z m-50 -51 c0 -8 -9 -14 -20 -14 -22 0 -28 26
-7 33 16 6 27 -1 27 -19z m-52 -47 c2 -10 -3 -17 -12 -17 -18 0 -29 16 -21 31
9 14 29 6 33 -14z m100 0 c2 -12 -3 -17 -17 -17 -12 0 -21 6 -21 13 0 31 32
34 38 4z"/>
<path d="M4392 6609 c3 -88 4 -92 36 -120 43 -39 84 -39 123 0 28 28 29 33 29
120 l0 91 -96 0 -96 0 4 -91z m68 35 c0 -8 -9 -14 -20 -14 -19 0 -27 19 -14
33 10 9 34 -4 34 -19z m100 5 c0 -12 -29 -24 -37 -16 -3 4 -3 13 0 21 6 16 37
11 37 -5z m-55 -50 c0 -7 -8 -15 -17 -17 -18 -3 -25 18 -11 32 10 10 28 1 28
-15z m-49 -40 c10 -17 -13 -36 -27 -22 -12 12 -4 33 11 33 5 0 12 -5 16 -11z
m99 -10 c0 -7 -8 -15 -17 -17 -18 -3 -25 18 -11 32 10 10 28 1 28 -15z"/>
<path d="M4660 6609 c0 -87 1 -92 29 -120 39 -39 80 -39 123 0 32 28 33 32 36
120 l4 91 -96 0 -96 0 0 -91z m60 35 c0 -17 -26 -19 -36 -3 -7 12 15 31 28 23
4 -3 8 -12 8 -20z m98 3 c2 -12 -3 -17 -17 -17 -12 0 -21 6 -21 13 0 31 32 34
38 4z m-50 -50 c2 -10 -3 -17 -12 -17 -18 0 -29 16 -21 31 9 14 29 6 33 -14z
m-50 -50 c2 -10 -3 -17 -12 -17 -18 0 -29 16 -21 31 9 14 29 6 33 -14z m98 12
c10 -17 -13 -36 -27 -22 -12 12 -4 33 11 33 5 0 12 -5 16 -11z"/>
<path d="M4920 6610 c0 -83 2 -93 24 -115 32 -32 69 -40 107 -25 44 19 59 56
59 150 l0 80 -95 0 -95 0 0 -90z m59 24 c-9 -11 -15 -12 -25 -3 -11 9 -12 15
-3 25 9 11 15 12 25 3 11 -9 12 -15 3 -25z m101 10 c0 -17 -26 -19 -36 -3 -7
12 15 31 28 23 4 -3 8 -12 8 -20z m-53 -39 c7 -20 -2 -29 -21 -22 -9 4 -13 13
-10 22 8 19 23 19 31 0z m-44 -49 c7 -16 -1 -26 -20 -26 -7 0 -13 9 -13 20 0
23 25 27 33 6z m95 -9 c2 -10 -3 -17 -12 -17 -18 0 -29 16 -21 31 9 14 29 6
33 -14z"/>
<path d="M4660 6284 c0 -96 8 -117 51 -140 38 -19 79 -11 110 22 21 22 24 37
27 115 l4 89 -96 0 -96 0 0 -86z m58 33 c2 -10 -3 -17 -12 -17 -18 0 -29 16
-21 31 9 14 29 6 33 -14z m100 0 c2 -12 -3 -17 -17 -17 -12 0 -21 6 -21 13 0
31 32 34 38 4z m-50 -50 c2 -10 -3 -17 -12 -17 -18 0 -29 16 -21 31 9 14 29 6
33 -14z m-48 -47 c0 -21 -24 -28 -35 -10 -8 14 3 30 21 30 8 0 14 -9 14 -20z
m96 9 c10 -17 -13 -36 -27 -22 -12 12 -4 33 11 33 5 0 12 -5 16 -11z"/>
<path d="M4146 6648 c-24 -33 -20 -38 29 -38 46 0 53 7 35 41 -14 26 -45 24
-64 -3z"/>
<path d="M5292 6658 c-7 -7 -12 -20 -12 -30 0 -14 8 -18 40 -18 32 0 40 4 40
18 0 22 -19 42 -40 42 -9 0 -21 -5 -28 -12z"/>
<path d="M4327 6073 c-12 -12 -7 -60 7 -72 20 -17 72 45 55 65 -12 15 -51 19
-62 7z"/>
<path d="M5117 6068 c-17 -12 -15 -16 17 -47 34 -33 34 -33 46 -12 18 34 9 66
-20 69 -14 2 -33 -3 -43 -10z"/>
<path d="M10259 5540 c-228 -36 -403 -166 -504 -375 -68 -141 -80 -201 -79
-400 1 -193 17 -272 79 -404 68 -143 220 -262 385 -302 82 -20 299 -17 380 5
266 73 457 300 501 595 15 105 6 322 -16 411 -61 235 -223 404 -437 455 -80
19 -237 26 -309 15z m206 -214 c143 -38 227 -123 281 -283 21 -62 27 -104 31
-203 3 -69 1 -150 -5 -180 -35 -184 -136 -321 -282 -381 -44 -19 -73 -23 -150
-23 -127 1 -194 26 -271 103 -93 94 -135 211 -145 406 -9 173 34 324 122 432
96 118 267 170 419 129z"/>
<path d="M19950 5540 c-128 -16 -252 -74 -319 -148 -18 -20 -48 -66 -65 -102
-28 -60 -31 -73 -31 -170 0 -128 18 -174 98 -254 58 -58 129 -98 267 -151 231
-88 288 -144 278 -270 -8 -93 -76 -162 -183 -186 -66 -15 -223 -8 -235 10 -4
8 -11 45 -15 83 -10 102 -5 98 -101 98 l-84 0 2 -187 3 -188 60 -12 c109 -23
300 -27 394 -9 177 33 310 127 374 263 26 57 32 83 35 159 6 128 -12 186 -83
262 -62 67 -131 107 -304 177 -191 76 -261 140 -261 236 1 119 110 199 269
199 106 0 107 -1 115 -78 11 -117 6 -112 102 -112 l84 0 0 179 0 179 -27 6
c-102 22 -274 29 -373 16z"/>
<path d="M15870 5525 c-263 -60 -460 -235 -544 -486 -45 -135 -52 -353 -16
-504 42 -174 172 -337 330 -413 131 -63 197 -76 390 -76 172 1 292 19 420 62
l55 19 3 260 2 261 48 6 c85 13 82 9 82 92 l0 74 -275 0 -275 0 0 -74 c0 -85
-4 -81 113 -92 l67 -7 -2 -181 -3 -180 -45 -14 c-29 -10 -90 -15 -170 -15
-105 -1 -135 3 -189 22 -203 71 -306 223 -318 467 -15 310 132 522 403 579 38
8 90 15 116 15 54 0 190 -19 206 -29 6 -3 16 -38 22 -76 19 -126 8 -115 110
-115 l90 0 -2 187 -3 187 -85 19 c-117 25 -438 33 -530 12z"/>
<path d="M8450 5455 l0 -74 38 -7 c20 -4 62 -10 92 -13 l55 -6 3 -562 2 -563
-32 0 c-17 0 -60 -5 -95 -11 l-63 -11 0 -74 0 -74 305 0 305 0 0 74 c0 85 6
80 -112 92 l-68 7 0 183 0 184 103 0 c209 0 375 73 477 209 67 89 85 148 85
287 0 119 0 121 -38 196 -43 87 -95 139 -182 182 -102 50 -158 56 -532 56
l-343 0 0 -75z m668 -128 c118 -31 185 -120 186 -246 1 -86 -23 -149 -78 -199
-69 -64 -200 -102 -300 -87 l-46 7 0 269 0 269 93 0 c51 0 116 -6 145 -13z"/>
<path d="M11170 5456 c0 -83 -5 -78 95 -91 28 -3 60 -8 73 -11 l22 -4 -2 -558
-3 -557 -25 -3 c-14 -1 -55 -7 -92 -13 l-68 -11 0 -74 0 -74 285 0 285 0 0 75
c0 84 5 79 -95 93 l-50 7 -3 224 c-2 227 2 257 32 232 9 -7 102 -152 207 -322
l192 -309 174 0 173 0 0 74 c0 83 3 79 -80 91 -25 4 -53 9 -63 12 -10 3 -92
116 -182 251 l-163 247 56 15 c135 37 232 112 284 218 31 63 33 72 33 177 0
98 -3 116 -26 166 -50 107 -144 174 -284 204 -54 11 -150 15 -422 15 l-353 0
0 -74z m675 -131 c104 -28 152 -80 162 -181 11 -109 -35 -192 -134 -241 -52
-25 -67 -27 -168 -28 l-110 0 -3 220 c-1 121 0 225 2 232 8 19 177 17 251 -2z"/>
<path d="M12450 5335 l0 -195 84 0 c95 0 90 -4 101 85 3 28 9 62 11 78 l6 27
129 0 129 0 0 -549 0 -548 -67 -7 c-119 -12 -113 -7 -113 -92 l0 -74 305 0
305 0 0 74 0 74 -30 5 c-16 4 -59 9 -95 13 l-65 7 0 548 0 549 129 0 129 0 6
-27 c2 -16 10 -58 16 -95 l12 -68 84 0 84 0 0 195 0 195 -580 0 -580 0 0 -195z"/>
<path d="M13712 5453 l3 -78 65 -10 65 -11 6 -464 c6 -493 8 -521 58 -618 50
-98 153 -174 282 -209 91 -24 339 -24 429 0 186 50 296 154 356 337 16 49 19
108 23 505 l6 449 65 11 65 10 3 78 3 77 -271 0 -270 0 0 -74 c0 -82 -1 -81
76 -91 27 -3 59 -8 72 -11 l24 -5 -4 -427 c-4 -399 -5 -431 -25 -488 -28 -84
-64 -128 -131 -161 -49 -24 -72 -28 -163 -31 -179 -7 -276 37 -327 146 l-27
57 0 455 0 455 75 10 75 10 3 78 3 77 -271 0 -271 0 3 -77z"/>
<path d="M16750 5455 c0 -83 -6 -77 90 -93 l45 -8 6 -454 c4 -318 9 -472 18
-510 40 -169 149 -281 317 -325 32 -9 111 -18 174 -22 348 -17 568 121 625
392 12 55 15 159 15 492 0 472 -8 424 75 438 78 12 75 9 75 91 l0 74 -275 0
-275 0 0 -74 c0 -85 -3 -82 102 -94 l63 -7 0 -430 c0 -379 -2 -437 -17 -486
-26 -83 -69 -136 -136 -167 -53 -25 -67 -27 -188 -27 -125 0 -133 1 -190 30
-77 40 -118 98 -134 192 -8 46 -10 199 -8 478 l3 410 64 7 c94 10 91 7 91 93
l0 75 -270 0 -270 0 0 -75z"/>
<path d="M18330 5456 l0 -74 63 -11 c35 -6 78 -11 95 -11 l32 0 0 -565 0 -565
-32 0 c-17 0 -60 -5 -95 -11 l-63 -11 0 -74 0 -74 490 0 490 0 0 185 0 185
-89 0 -88 0 -14 -87 -14 -88 -173 -3 -172 -2 0 240 0 241 137 -3 137 -3 8 -45
c16 -96 10 -90 93 -90 l75 0 0 225 0 225 -74 0 -75 0 -11 -57 c-7 -32 -14 -64
-16 -70 -2 -10 -39 -13 -139 -13 l-135 0 0 220 0 220 172 -2 173 -3 7 -55 c15
-107 7 -100 103 -100 l85 0 0 175 0 175 -485 0 -485 0 0 -74z"/>
<path d="M21100 5528 c-1 -2 -105 -293 -233 -647 -255 -708 -227 -650 -319
-666 l-38 -6 0 -74 0 -75 260 0 260 0 0 75 0 74 -32 6 c-18 3 -54 8 -79 12
l-47 8 37 100 36 100 289 0 288 0 34 -94 c19 -51 34 -97 34 -101 0 -4 -21 -11
-47 -14 -27 -4 -63 -10 -80 -13 l-33 -5 0 -74 0 -74 275 0 275 0 0 75 0 74
-37 6 c-92 16 -66 -39 -315 646 -125 343 -232 634 -238 647 -9 21 -14 22 -150
22 -77 0 -140 -1 -140 -2z m263 -643 c47 -126 88 -238 92 -247 7 -17 -8 -18
-219 -18 -124 0 -226 3 -226 6 0 3 40 117 89 252 91 252 101 283 122 362 l12
45 23 -85 c12 -47 61 -188 107 -315z"/>
<path d="M4335 4324 c-475 -73 -874 -239 -1086 -453 -136 -138 -203 -282 -203
-436 0 -79 3 -97 28 -143 101 -197 380 -324 846 -386 140 -19 366 -36 478 -36
l82 0 0 735 0 735 -27 -1 c-16 -1 -68 -7 -118 -15z"/>
</g>
</svg>
