<svg width="12" height="9" viewBox="0 0 12 9" fill="none" xmlns="http://www.w3.org/2000/svg">
<g id="&#195;&#173;cone/seta">
<path id="Vector" d="M0.685136 4.72619C0.624528 4.72619 0.566084 4.70238 0.520629 4.65692C0.434046 4.56601 0.43621 4.42098 0.527122 4.3344L4.67227 0.329955C4.76318 0.243372 4.9082 0.245537 4.99479 0.336448C5.08137 0.42736 5.0792 0.572386 4.98829 0.658969L0.843149 4.66342C0.799858 4.70671 0.743579 4.72619 0.685136 4.72619Z" fill="#100C07"/>
<path id="Vector_2" d="M4.83019 8.73266C4.77391 8.73266 4.71546 8.71101 4.67217 8.66772L0.52703 4.66327C0.459928 4.59833 0.438283 4.49876 0.47508 4.41435C0.509713 4.32776 0.594131 4.27148 0.687208 4.27148H7.58784C9.76756 4.27148 11.5425 6.04426 11.5425 8.22615V8.50321C11.5425 8.62876 11.4408 8.73049 11.3152 8.73049C11.1897 8.73049 11.0879 8.62876 11.0879 8.50321V8.22398C11.0879 6.29535 9.51864 4.72604 7.59001 4.72604H1.24999L4.9882 8.3387C5.07911 8.42529 5.08128 8.57031 4.99469 8.66122C4.94924 8.70884 4.89079 8.73266 4.83019 8.73266Z" fill="#100C07"/>
</g>
</svg>
