<svg width="16" height="16" viewBox="0 0 16 16" fill="none" xmlns="http://www.w3.org/2000/svg">
<g id="Layer_x0020_1">
<path id="Vector" d="M0.564225 2.27024H2.77527V0.999363C2.77527 0.484587 3.55801 0.484587 3.55801 0.999363V2.27024H12.4419V0.999363C12.4419 0.484587 13.2246 0.484587 13.2246 0.999363V2.27024H15.4356C15.6518 2.27024 15.827 2.44542 15.827 2.66142V14.9962C15.827 15.2122 15.6518 15.3876 15.4356 15.3876H0.564225C0.348034 15.3876 0.172852 15.2122 0.172852 14.9962V2.66142C0.172852 2.44542 0.348034 2.27024 0.564225 2.27024ZM2.27013 5.988H3.73546C3.95146 5.988 4.12684 6.16337 4.12684 6.37937V7.84471C4.12684 8.06071 3.95146 8.23608 3.73546 8.23608H2.27013C2.05394 8.23608 1.87875 8.06071 1.87875 7.84471V6.37937C1.87875 6.16337 2.05394 5.988 2.27013 5.988ZM3.34409 6.77075H2.6615V7.45334H3.34409V6.77075ZM2.27013 8.92963H3.73546C3.95146 8.92963 4.12684 9.10481 4.12684 9.32082V10.7861C4.12684 11.0023 3.95146 11.1775 3.73546 11.1775H2.27013C2.05394 11.1775 1.87875 11.0023 1.87875 10.7861V9.32082C1.87875 9.10481 2.05394 8.92963 2.27013 8.92963ZM3.34409 9.71219H2.6615V10.3948H3.34409V9.71219ZM12.2644 8.92963H13.7297C13.9459 8.92963 14.1211 9.10481 14.1211 9.32082V10.7861C14.1211 11.0023 13.9459 11.1775 13.7297 11.1775H12.2644C12.0484 11.1775 11.873 11.0023 11.873 10.7861V9.32082C11.873 9.10481 12.0484 8.92963 12.2644 8.92963ZM13.3384 9.71219H12.6558V10.3948H13.3384V9.71219ZM8.93292 8.92963H10.3983C10.6144 8.92963 10.7896 9.10481 10.7896 9.32082V10.7861C10.7896 11.0023 10.6144 11.1775 10.3983 11.1775H8.93292C8.71692 11.1775 8.54174 11.0023 8.54174 10.7861V9.32082C8.54174 9.10481 8.71692 8.92963 8.93292 8.92963ZM10.0069 9.71219H9.32429V10.3948H10.0069V9.71219ZM5.60162 8.92963H7.06695C7.28295 8.92963 7.45814 9.10481 7.45814 9.32082V10.7861C7.45814 11.0023 7.28295 11.1775 7.06695 11.1775H5.60162C5.38543 11.1775 5.21025 11.0023 5.21025 10.7861V9.32082C5.21025 9.10481 5.38543 8.92963 5.60162 8.92963ZM6.67558 9.71219H5.99299V10.3948H6.67558V9.71219ZM12.2644 5.988H13.7297C13.9459 5.988 14.1211 6.16337 14.1211 6.37937V7.84471C14.1211 8.06071 13.9459 8.23608 13.7297 8.23608H12.2644C12.0484 8.23608 11.873 8.06071 11.873 7.84471V6.37937C11.873 6.16337 12.0484 5.988 12.2644 5.988ZM13.3384 6.77075H12.6558V7.45334H13.3384V6.77075ZM8.93292 5.988H10.3983C10.6144 5.988 10.7896 6.16337 10.7896 6.37937V7.84471C10.7896 8.06071 10.6144 8.23608 10.3983 8.23608H8.93292C8.71692 8.23608 8.54174 8.06071 8.54174 7.84471V6.37937C8.54174 6.16337 8.71692 5.988 8.93292 5.988ZM10.0069 6.77075H9.32429V7.45334H10.0069V6.77075ZM5.60162 5.988H7.06695C7.28295 5.988 7.45814 6.16337 7.45814 6.37937V7.84471C7.45814 8.06071 7.28295 8.23608 7.06695 8.23608H5.60162C5.38543 8.23608 5.21025 8.06071 5.21025 7.84471V6.37937C5.21025 6.16337 5.38543 5.988 5.60162 5.988ZM6.67558 6.77075H5.99299V7.45334H6.67558V6.77075ZM0.955598 4.23844H15.0443V3.0528C10.348 3.0528 5.65189 3.0528 0.955598 3.0528V4.23844ZM15.0443 5.02119H0.955598V14.6048H15.0443V5.02119Z" fill="#100C07"/>
</g>
</svg>
