<svg width="17" height="18" viewBox="0 0 17 18" fill="none" xmlns="http://www.w3.org/2000/svg">
<g id="&#195;&#173;cone/corrente">
<path id="Vector" d="M3.96704 10.1962C4.55709 9.60688 5.42409 9.37454 6.23371 9.59271C6.42213 9.64442 6.61692 9.5325 6.66721 9.34267C6.71821 9.15354 6.60629 8.95946 6.41717 8.90846C5.36529 8.62513 4.2355 8.92617 3.46554 9.69542L0.887919 12.2745C-0.299957 13.463 -0.299957 15.3961 0.912002 16.6073C1.48717 17.1825 2.25288 17.4998 3.06604 17.4998C3.87921 17.4998 4.64563 17.1832 5.22079 16.6073L7.79984 14.0283C8.56979 13.259 8.87084 12.1271 8.58609 11.076C8.53579 10.8868 8.34242 10.7742 8.15188 10.8266C7.96275 10.8776 7.85154 11.0717 7.90254 11.2608C8.12071 12.0683 7.88909 12.9368 7.29834 13.5275L4.72 16.1065C4.27871 16.5485 3.6915 16.7915 3.06675 16.7915C2.44129 16.7915 1.85479 16.5478 1.38871 16.0825C0.477085 15.1708 0.477085 13.6869 1.38871 12.7753L3.96704 10.1962Z" fill="#100C07"/>
<path id="Vector_2" d="M10.575 9.0912C10.8357 9.16132 11.1013 9.19532 11.3655 9.19532C12.1645 9.19532 12.9465 8.88153 13.5245 8.30353L16.1036 5.72449C17.2914 4.53591 17.2914 2.60286 16.0795 1.39091C14.8909 0.202323 12.9593 0.20374 11.7707 1.39091L9.19094 3.97066C8.4734 4.6882 8.16102 5.71103 8.35369 6.70695C8.39194 6.89891 8.58461 7.02357 8.76877 6.98745C8.96073 6.95061 9.08611 6.76432 9.04927 6.57236C8.90052 5.80736 9.14065 5.02253 9.69102 4.47145L12.2701 1.89241C13.1817 0.98149 14.6649 0.980073 15.6014 1.91649C16.513 2.82811 16.513 4.31207 15.6014 5.2237L13.0223 7.80274C12.4323 8.39278 11.5646 8.6237 10.7578 8.40695C10.5729 8.35736 10.3746 8.46857 10.3243 8.65699C10.274 8.84611 10.3859 9.04091 10.575 9.0912Z" fill="#100C07"/>
<path id="Vector_3" d="M11.3005 6.19441C11.1624 6.05629 10.9378 6.05629 10.7997 6.19441L5.69051 11.3036C5.55238 11.4417 5.55238 11.6663 5.69051 11.8044C5.75992 11.8738 5.85059 11.9078 5.94126 11.9078C6.03192 11.9078 6.12259 11.8731 6.19201 11.8044L11.3012 6.6945C11.4386 6.55637 11.4386 6.33254 11.3005 6.19441Z" fill="#100C07"/>
</g>
</svg>
