<svg width="13" height="10" viewBox="0 0 13 10" fill="none" xmlns="http://www.w3.org/2000/svg">
<path id="Vector" d="M11.9085 0.731751C11.8393 0.663354 11.7459 0.625 11.6485 0.625C11.5512 0.625 11.4578 0.663354 11.3885 0.731751L4.51854 8.46175L1.60854 6.13175C1.57086 6.09333 1.52544 6.06336 1.4753 6.04381C1.42516 6.02427 1.37143 6.01559 1.31769 6.01837C1.26394 6.02114 1.2114 6.0353 1.16354 6.0599C1.11568 6.08451 1.07359 6.119 1.04005 6.16109C1.00652 6.20318 0.982314 6.25192 0.969031 6.30407C0.955749 6.35622 0.953695 6.4106 0.963006 6.46361C0.972317 6.51661 0.992781 6.56703 1.02304 6.61154C1.0533 6.65604 1.09267 6.69361 1.13854 6.72175L4.36854 9.27175C4.43899 9.33784 4.53195 9.37462 4.62854 9.37462C4.72513 9.37462 4.8181 9.33784 4.88854 9.27175L11.9485 1.27175C11.9817 1.23384 12.0071 1.1897 12.023 1.14191C12.039 1.09412 12.0453 1.04363 12.0416 0.993378C12.0379 0.943126 12.0242 0.894116 12.0013 0.8492C11.9785 0.804285 11.947 0.764361 11.9085 0.731751Z" fill="#FCFAF8"/>
</svg>
