<svg width="21" height="14" viewBox="0 0 21 14" fill="none" xmlns="http://www.w3.org/2000/svg">
<g id="&#195;&#173;cone/mensagem">
<path id="Vector" d="M20.1456 0.5H0.853066H0.685752H0.279701H0V13.5H21V0.5H20.2736H20.1456ZM19.3056 1.31252L11.1927 9.15969C10.8228 9.51751 10.1771 9.51751 9.8072 9.15969L1.69305 1.31252H19.3056ZM0.839946 1.63619L6.29419 6.91102L0.839946 12.1867V1.63619ZM1.51013 12.6874L6.88853 7.48589L9.21329 9.73415C9.55661 10.0666 10.0139 10.2499 10.5 10.2499C10.986 10.2499 11.4433 10.0666 11.7866 9.73415L14.1114 7.48552L19.4894 12.6874H1.51013ZM20.16 12.1871L14.7057 6.91107L20.16 1.63504L20.16 12.1871Z" fill="#100C07"/>
</g>
</svg>
