<svg width="16" height="16" viewBox="0 0 16 16" fill="none" xmlns="http://www.w3.org/2000/svg">
<g id="&#195;&#173;cone/facebook">
<path id="Vector" fill-rule="evenodd" clip-rule="evenodd" d="M14.0452 0C15.1241 0 16 0.875938 16 1.95481V14.0452C16 15.1241 15.1241 16 14.0452 16H10.7181V9.97141H12.7993L13.1953 7.3895H10.7181V5.71397C10.7181 5.00763 11.0641 4.31909 12.1737 4.31909H13.3V2.12097C13.3 2.12097 12.2778 1.94653 11.3006 1.94653C9.26031 1.94653 7.92681 3.18306 7.92681 5.42166V7.3895H5.65891V9.97141H7.92681V16H1.95481C0.875938 16 0 15.1241 0 14.0452V1.95481C0 0.875938 0.875906 0 1.95481 0L14.0452 0Z" fill="#100C07"/>
</g>
</svg>
