<svg width="16" height="16" viewBox="0 0 16 16" fill="none" xmlns="http://www.w3.org/2000/svg">
<g id="&#195;&#173;cone/instagram">
<path id="Vector" fill-rule="evenodd" clip-rule="evenodd" d="M14.0452 0C15.1241 0 16 0.875938 16 1.95481V14.0452C16 15.1241 15.1241 16 14.0452 16H1.95481C0.875938 16 0 15.1241 0 14.0452V1.95481C0 0.875938 0.875906 0 1.95481 0L14.0452 0ZM8 2.53125C6.51478 2.53125 6.32853 2.53753 5.74525 2.56416C5.16316 2.59072 4.76562 2.68316 4.41775 2.81838C4.05813 2.95813 3.75316 3.14513 3.44913 3.44913C3.14509 3.75316 2.95809 4.05816 2.81834 4.41775C2.68316 4.76562 2.59072 5.16316 2.56413 5.74525C2.53753 6.32853 2.53125 6.51478 2.53125 8C2.53125 9.48522 2.53753 9.67147 2.56413 10.2548C2.59072 10.8368 2.68316 11.2344 2.81834 11.5822C2.95809 11.9418 3.14509 12.2468 3.44913 12.5509C3.75316 12.8549 4.05813 13.0419 4.41775 13.1817C4.76562 13.3168 5.16316 13.4093 5.74525 13.4358C6.32853 13.4625 6.51478 13.4688 8 13.4688C9.48522 13.4688 9.67147 13.4625 10.2548 13.4358C10.8368 13.4093 11.2344 13.3168 11.5822 13.1817C11.9418 13.0419 12.2468 12.8549 12.5509 12.5509C12.8549 12.2468 13.0419 11.9418 13.1817 11.5822C13.3168 11.2344 13.4093 10.8368 13.4358 10.2548C13.4625 9.67147 13.4688 9.48522 13.4688 8C13.4688 6.51478 13.4625 6.32853 13.4358 5.74525C13.4093 5.16316 13.3168 4.76562 13.1817 4.41775C13.0419 4.05816 12.8549 3.75316 12.5509 3.44913C12.2468 3.14513 11.9418 2.95813 11.5822 2.81838C11.2344 2.68316 10.8368 2.59072 10.2548 2.56416C9.67147 2.53753 9.48522 2.53125 8 2.53125ZM8 3.51662C9.46022 3.51662 9.63319 3.52219 10.2098 3.5485C10.743 3.57284 11.0326 3.66194 11.2253 3.73678C11.4806 3.836 11.6628 3.95453 11.8541 4.14587C12.0455 4.33725 12.164 4.51944 12.2632 4.77469C12.3381 4.96741 12.4272 5.25697 12.4515 5.79016C12.4778 6.36681 12.4834 6.53978 12.4834 8C12.4834 9.46022 12.4778 9.63319 12.4515 10.2098C12.4272 10.743 12.3381 11.0326 12.2632 11.2253C12.164 11.4806 12.0455 11.6628 11.8541 11.8541C11.6628 12.0455 11.4806 12.164 11.2253 12.2632C11.0326 12.3381 10.743 12.4272 10.2098 12.4515C9.63328 12.4778 9.46031 12.4834 8 12.4834C6.53969 12.4834 6.36675 12.4778 5.79016 12.4515C5.25697 12.4272 4.96741 12.3381 4.77469 12.2632C4.51941 12.164 4.33725 12.0455 4.14587 11.8541C3.9545 11.6628 3.83597 11.4806 3.73678 11.2253C3.66191 11.0326 3.57281 10.743 3.54847 10.2098C3.52216 9.63319 3.51659 9.46022 3.51659 8C3.51659 6.53978 3.52216 6.36681 3.54847 5.79016C3.57281 5.25697 3.66191 4.96741 3.73678 4.77469C3.83597 4.51944 3.9545 4.33725 4.14587 4.14587C4.33725 3.95453 4.51941 3.836 4.77469 3.73678C4.96741 3.66194 5.25697 3.57284 5.79016 3.5485C6.36681 3.52219 6.53978 3.51662 8 3.51662ZM8 5.19172C6.44903 5.19172 5.19172 6.44903 5.19172 8C5.19172 9.55097 6.44903 10.8083 8 10.8083C9.55097 10.8083 10.8083 9.55097 10.8083 8C10.8083 6.44903 9.55097 5.19172 8 5.19172ZM8 9.82291C6.99322 9.82291 6.17709 9.00678 6.17709 8C6.17709 6.99322 6.99322 6.17709 8 6.17709C9.00678 6.17709 9.82291 6.99322 9.82291 8C9.82291 9.00678 9.00678 9.82291 8 9.82291ZM11.5755 5.08078C11.5755 5.44322 11.2817 5.737 10.9192 5.737C10.5568 5.737 10.263 5.44322 10.263 5.08078C10.263 4.71834 10.5568 4.42453 10.9192 4.42453C11.2817 4.42453 11.5755 4.71834 11.5755 5.08078Z" fill="#100C07"/>
</g>
</svg>
