<svg width="17" height="18" viewBox="0 0 17 18" fill="none" xmlns="http://www.w3.org/2000/svg">
<g id="&#195;&#173;cone/call">
<path id="Vector" d="M15.9375 1.5625H13.8125V3.6875H15.9375V1.5625Z" fill="#100C07"/>
<path id="Vector_2" d="M15.9375 4.75H13.8125V6.875H15.9375V4.75Z" fill="#100C07"/>
<path id="Vector_3" d="M12.75 1.5625H10.625V3.6875H12.75V1.5625Z" fill="#100C07"/>
<path id="Vector_4" d="M12.75 4.75H10.625V6.875H12.75V4.75Z" fill="#100C07"/>
<path id="Vector_5" d="M13.2813 16.4375H13.191C2.75193 15.8372 1.26974 7.02906 1.06256 4.34094C1.03015 3.9195 1.16648 3.50244 1.44156 3.18152C1.71665 2.86059 2.10795 2.66209 2.52939 2.62968C2.5715 2.62656 2.61381 2.625 2.65631 2.625H5.456C5.66879 2.62479 5.87675 2.68849 6.05292 2.80784C6.2291 2.92718 6.36539 3.09668 6.44412 3.29438L7.25162 5.28125C7.32937 5.47438 7.34866 5.6861 7.30711 5.89011C7.26555 6.09412 7.16497 6.28142 7.01787 6.42875L5.88631 7.57094C6.06234 8.57571 6.54314 9.50202 7.26349 10.2243C7.98383 10.9465 8.90888 11.4298 9.91318 11.6084L11.066 10.4663C11.2155 10.3208 11.4046 10.2225 11.6096 10.1838C11.8146 10.1451 12.0265 10.1676 12.2188 10.2484L14.2216 11.0506C14.4163 11.1318 14.5825 11.2692 14.6988 11.4452C14.8152 11.6211 14.8765 11.8278 14.8751 12.0387V14.8438C14.8751 15.2664 14.7071 15.6718 14.4083 15.9707C14.1094 16.2696 13.704 16.4375 13.2813 16.4375ZM2.65631 3.6875C2.58654 3.68728 2.51742 3.7008 2.45288 3.72729C2.38834 3.75378 2.32965 3.79272 2.28016 3.8419C2.23067 3.89107 2.19135 3.94951 2.16445 4.01388C2.13754 4.07825 2.12358 4.14729 2.12336 4.21705C2.12336 4.23182 2.12389 4.24653 2.12506 4.26125C2.36943 7.40625 3.93662 14.8438 13.2494 15.375C13.3901 15.3834 13.5283 15.3357 13.6337 15.2422C13.7391 15.1487 13.8031 15.0172 13.8115 14.8766C13.8122 14.8656 13.8126 14.8547 13.8126 14.8438V12.0387L11.8097 11.2366L10.2851 12.7506L10.0301 12.7188C5.40818 12.1397 4.78131 7.51781 4.78131 7.47L4.74943 7.215L6.25818 5.69031L5.46131 3.6875H2.65631Z" fill="#100C07"/>
</g>
</svg>
