<?xml version="1.0" encoding="utf-8"?>
<svg xmlns="http://www.w3.org/2000/svg" viewBox="24.4321 24.4321 1031.1357 1031.1357" width="1031.14px" height="1031.14px"><g id="object-2"><g transform="matrix(11.457065, 0, 0, 11.457065, 540.000016, 540.000016)" style="" id="object-1"><path style="stroke: none; stroke-width: 1; stroke-dasharray: none; stroke-linecap: butt; stroke-dashoffset: 0; stroke-linejoin: miter; stroke-miterlimit: 4; fill: rgb(255,160,22); fill-rule: nonzero; opacity: 1;" vector-effect="non-scaling-stroke" transform=" translate(-50, -50)" d="M 50 5 C 25.147186257614294 5 5 25.147186257614294 5 50 C 5 74.8528137423857 25.147186257614294 95 50 95 C 74.8528137423857 95 95 74.8528137423857 95 50 C 94.99967968274797 25.147318938573545 74.85268106142644 5.000320317252026 49.999999999999986 5 Z M 50 93 C 29.485668181921238 93.00011573548079 11.828023494600657 78.50900727607218 7.825790545877865 58.388869568298134 C 3.823557597155073 38.268731860524085 14.591416081442532 18.123313921241618 33.54416505903019 10.272765141176421 C 52.49691403661785 2.422216361111225 74.3559391166679 9.05302798833661 85.75311582871687 26.110055072502306 C 97.15029254076585 43.167082156668 94.91134252138022 65.89969624076967 80.40552 80.40552000000001 C 72.35014812903316 88.48254881713167 61.40733001023763 93.01524893016405 50 93 Z" stroke-linecap="round"/></g><g transform="matrix(3.698149, 0, 0, 3.698149, 545.995194, 540.009477)" style=""><path style="stroke: rgb(0,0,0); stroke-width: 0; stroke-dasharray: none; stroke-linecap: butt; stroke-dashoffset: 0; stroke-linejoin: miter; stroke-miterlimit: 4; fill: rgb(254,160,23); fill-rule: nonzero; opacity: 1;" vector-effect="non-scaling-stroke" transform=" translate(-34.8, -67.07)" d="M 8.07955 1.79124 C 6.44151 0.0760959 3.79384 0.0760959 2.15581 1.79124 C 0.517774 3.50639 0.517774 6.27869 2.15581 7.99384 L 58.5695 67.0634 L 2.15162 126.142 C 0.513587 127.857 0.513587 130.629 2.15162 132.344 C 2.96854 133.2 4.04102 133.63 5.11349 133.63 C 6.18596 133.63 7.25844 133.2 8.07536 132.344 L 67.451 70.1647 C 69.089 68.4495 69.089 65.6772 67.451 63.962 L 8.07955 1.79124 Z" stroke-linecap="round"/></g></g></svg>