<svg width="15" height="17" viewBox="0 0 15 17" fill="none" xmlns="http://www.w3.org/2000/svg">
<g id="Frame" clip-path="url(#clip0_2713_1704)">
<g id="Layer_1">
<path id="Vector" d="M5.10005 0.820312C2.45345 0.820312 0.300049 3.11727 0.300049 5.94031C0.300049 8.76335 2.45345 11.0603 5.10005 11.0603C6.31565 11.0603 7.42385 10.572 8.27045 9.77455L14.1879 16.0866L14.6121 15.6341L8.69465 9.32207C9.44225 8.41903 9.90005 7.23695 9.90005 5.94031C9.90005 3.11727 7.74665 0.820312 5.10005 0.820312ZM5.10005 10.4203C2.78405 10.4203 0.900049 8.41071 0.900049 5.94031C0.900049 3.46991 2.78405 1.46031 5.10005 1.46031C7.41605 1.46031 9.30005 3.46991 9.30005 5.94031C9.30005 8.41071 7.41605 10.4203 5.10005 10.4203Z" fill="#100C07"/>
</g>
</g>
<defs>
<clipPath id="clip0_2713_1704">
<rect width="15" height="16" fill="white" transform="translate(0 0.5)"/>
</clipPath>
</defs>
</svg>
