<svg width="10" height="10" viewBox="0 0 10 10" fill="none" xmlns="http://www.w3.org/2000/svg">
<g id="&#195;&#173;cone/x">
<path id="Vector" d="M9.99711 9.61333C9.99741 9.66392 9.98771 9.71408 9.96858 9.76092C9.94945 9.80776 9.92126 9.85036 9.88563 9.88628C9.84989 9.92232 9.80737 9.95092 9.76052 9.97043C9.71367 9.98995 9.66342 10 9.61267 10C9.56192 10 9.51167 9.98995 9.46482 9.97043C9.41797 9.95092 9.37545 9.92232 9.33972 9.88628L0.113062 0.659628C0.0406695 0.587235 0 0.489051 0 0.386673C0 0.284295 0.0406695 0.18611 0.113062 0.113718C0.185454 0.0413265 0.283639 0.000656128 0.386017 0.000656128C0.488395 0.000656128 0.58658 0.0413265 0.658972 0.113718L9.88563 9.34037C9.92126 9.37629 9.94945 9.4189 9.96858 9.46574C9.98771 9.51258 9.99741 9.56273 9.99711 9.61333Z" fill="#100C07"/>
<path id="Vector_2" d="M9.99711 0.386353C9.99741 0.436948 9.98771 0.487103 9.96858 0.533943C9.94945 0.580783 9.92126 0.623384 9.88562 0.659307L0.658972 9.88596C0.58658 9.95835 0.488395 9.99902 0.386017 9.99902C0.283639 9.99902 0.185454 9.95835 0.113062 9.88596C0.0406695 9.81357 7.62776e-10 9.71538 0 9.61301C-7.62776e-10 9.51063 0.0406695 9.41244 0.113062 9.34005L9.33972 0.113398C9.37545 0.077364 9.41797 0.0487633 9.46482 0.0292454C9.51167 0.00972748 9.56192 -0.000320435 9.61267 -0.000320435C9.66342 -0.000320435 9.71367 0.00972748 9.76052 0.0292454C9.80737 0.0487633 9.84989 0.077364 9.88562 0.113398C9.92126 0.14932 9.94945 0.191922 9.96858 0.238762C9.98771 0.285602 9.99741 0.335757 9.99711 0.386353Z" fill="#100C07"/>
</g>
</svg>
